<svg width="481" height="353" viewBox="0 0 481 353" fill="none" xmlns="http://www.w3.org/2000/svg">
<path d="M156.779 243.584H344.723V5.05428H156.779V243.584Z" fill="#4867AA"/>
<path d="M28.9897 247.739H32.995V0.897477H28.9897V247.739Z" fill="#4867AA"/>
<path d="M32.9948 247.739L156.779 243.584V5.05428L32.9948 0.897477V247.739Z" fill="#0F2E54"/>
<path d="M29.0639 0.290762L28.9058 2.991L158.595 7.91704L158.753 5.21681L29.0639 0.290762Z" fill="#4867AA"/>
<path d="M160.128 243.345L159.994 240.644L30.265 244.841L30.3997 247.542L160.128 243.345Z" fill="#4867AA"/>
<path d="M164.192 237.281H337.31V11.3569H164.192V237.281Z" fill="#1D3F70"/>
<path d="M286.487 213.799H324.472V159.016H302.305V122.466H315.367V31.1443H313.817V121.22H300.754V160.262H322.922V212.552H286.487V213.799Z" fill="#4867AA"/>
<path d="M286.487 202.698H312.201V170.547H297.95V31.1443H296.4V171.793H310.65V201.452H286.487V202.698Z" fill="#4867AA"/>
<path d="M252.894 213.175H254.445V160.262H276.613V121.22H263.55V31.1443H261.999V122.466H275.062V159.015H252.894V213.175Z" fill="#4867AA"/>
<path d="M265.167 202.075H266.717V171.793H280.967V31.1443H279.417V170.547H265.167V202.075Z" fill="#4867AA"/>
<path d="M186.794 185.795H222.755V184.549H188.344V127.558H239.364V31.1443H237.814V126.311H186.794V185.795" fill="#4867AA"/>
<path d="M181.252 191.841H221.964V190.595H182.803V122.784H222.739V31.1443H221.188V121.538H181.252V191.841Z" fill="#4867AA"/>
<path d="M175.71 197.888H221.963V196.641H177.261V118.647H205.322V31.1443H203.771V117.401H175.71V197.888Z" fill="#4867AA"/>
<path d="M170.565 204.252H221.963V203.006H172.115V106.508H187.509V31.1443H185.958V105.262H170.565V204.252Z" fill="#4867AA"/>
<path d="M182.412 63.1281H243.741V48.9892H182.412V63.1281Z" fill="#B0C7F5"/>
<path d="M257.761 63.1281H319.088V48.9892H257.761V63.1281Z" fill="#B0C7F5"/>
<path d="M210.484 225.297H291.017V178.854H210.484V225.297Z" fill="#B0C7F5"/>
<path d="M267.394 24.0749V29.8582H275.016V24.0749H284.649V29.8582H292.46V24.0749H302.093V29.8582H309.456V24.0749H319.088V38.2138H309.456V32.362H302.093V38.2138H292.46V32.362H284.649V38.2138H275.016V32.362H267.394V38.2138H257.761V24.0749H267.394" fill="#B0C7F5"/>
<path d="M192.047 24.0749V29.8582H199.667V24.0749H209.302V29.8582H217.112V24.0749H226.744V29.8582H234.108V24.0749H243.741V38.2138H234.108V32.362H226.744V38.2138H217.112V32.362H209.302V38.2138H199.667V32.362H192.047V38.2138H182.412V24.0749H192.047" fill="#B0C7F5"/>
<path d="M182.412 112.955H243.741V98.8157H182.412V112.955Z" fill="#B0C7F5"/>
<path d="M194.057 138.329H243.741V131.122H194.057V138.329Z" fill="#B0C7F5"/>
<path d="M194.057 150.786H243.741V143.579H194.057V150.786Z" fill="#B0C7F5"/>
<path d="M194.057 163.243H243.741V156.037H194.057V163.243Z" fill="#B0C7F5"/>
<path d="M257.761 112.955H319.088V98.8157H257.761V112.955Z" fill="#B0C7F5"/>
<path d="M267.394 73.9014V79.6847H275.016V73.9014H284.649V79.6847H292.46V73.9014H302.093V79.6847H309.456V73.9014H319.088V88.0425H309.456V82.1885H302.093V88.0425H292.46V82.1885H284.649V88.0425H275.016V82.1885H267.394V88.0425H257.761V73.9014H267.394" fill="#B0C7F5"/>
<path d="M192.047 73.9014V79.6847H199.667V73.9014H209.302V79.6847H217.112V73.9014H226.744V79.6847H234.108V73.9014H243.741V88.0425H234.108V82.1885H226.744V88.0425H217.112V82.1885H209.302V88.0425H199.667V82.1885H192.047V88.0425H182.412V73.9014H192.047" fill="#B0C7F5"/>
<path d="M275.507 164.295H301.341C305.963 164.295 309.709 161.283 309.709 157.568V136.799C309.709 133.085 305.963 130.073 301.341 130.073H275.507C270.886 130.073 267.14 133.085 267.14 136.799V157.568C267.14 161.283 270.886 164.295 275.507 164.295Z" fill="#B0C7F5"/>
<path d="M81.6615 121.834C87.5443 121.657 93.427 121.598 99.3125 121.64C92.9734 114.099 86.9065 106.409 81.9914 98.1771C92.7398 105.693 102.163 114.314 111.169 123.133C113.472 125.277 111.292 128.888 107.727 128.724C101.877 128.859 96.0275 128.89 90.175 128.813C95.9478 135.772 101.462 142.894 105.959 150.461C98.3916 145.23 91.5907 139.361 85.0043 133.363C82.6567 130.68 78.5717 128.572 77.6564 125.299C77.5739 123.454 79.3662 121.903 81.6615 121.834" fill="#FFBB4D"/>
<path d="M47.1959 217.673C47.2097 217.673 47.2234 217.673 47.2344 217.673L142.611 215.596C143.361 215.578 143.955 215.076 143.936 214.471C143.914 213.878 143.309 213.408 142.575 213.408C142.561 213.408 142.55 213.408 142.536 213.408L47.1602 215.485C46.4097 215.5 45.816 216.004 45.838 216.608C45.8572 217.202 46.462 217.673 47.1959 217.673" fill="#B0C7F5"/>
<path d="M47.1959 209.364C47.2097 209.364 47.2234 209.364 47.2344 209.364L142.611 207.286C143.361 207.269 143.955 206.767 143.936 206.164C143.914 205.569 143.309 205.098 142.575 205.098C142.561 205.098 142.55 205.098 142.536 205.098L47.1602 207.176C46.4097 207.191 45.816 207.695 45.838 208.298C45.8572 208.893 46.462 209.364 47.1959 209.364" fill="#B0C7F5"/>
<path d="M47.1959 201.054C47.2097 201.054 47.2234 201.054 47.2344 201.054L142.611 198.977C143.361 198.959 143.955 198.458 143.936 197.852C143.914 197.26 143.309 196.789 142.575 196.789C142.561 196.789 142.55 196.789 142.536 196.789L47.1602 198.867C46.4097 198.882 45.816 199.386 45.838 199.989C45.8572 200.583 46.462 201.054 47.1959 201.054" fill="#B0C7F5"/>
<path d="M142.575 51.9195C143.309 51.9195 143.914 51.4488 143.936 50.8543C143.955 50.251 143.361 49.7472 142.611 49.7317L47.2344 47.6544C46.4894 47.6367 45.8572 48.1141 45.838 48.7174C45.816 49.3229 46.4097 49.8245 47.1602 49.8422L142.536 51.9195C142.55 51.9195 142.561 51.9195 142.575 51.9195Z" fill="#B0C7F5"/>
<path d="M142.575 43.6104C143.309 43.6104 143.914 43.1396 143.936 42.5452C143.955 41.9419 143.361 41.438 142.611 41.4226L47.2344 39.3453C46.4894 39.3298 45.8572 39.8049 45.838 40.4082C45.816 41.0137 46.4097 41.5154 47.1602 41.5331L142.536 43.6104C142.55 43.6104 142.561 43.6104 142.575 43.6104Z" fill="#B0C7F5"/>
<path d="M142.575 35.3011C143.309 35.3011 143.914 34.8303 143.936 34.2359C143.955 33.6326 143.361 33.1287 142.611 33.1133L47.2344 31.036C46.4894 31.0161 45.8572 31.4957 45.838 32.099C45.816 32.7045 46.4097 33.2061 47.1602 33.2237L142.536 35.3011C142.55 35.3011 142.561 35.3011 142.575 35.3011Z" fill="#B0C7F5"/>
<path d="M289.214 112.091C289.214 112.091 277.595 108.979 276.346 106.219C274.207 101.488 273.62 96.6942 277.015 96.9594C280.41 97.2224 288.666 101.969 290.006 103.364C290.006 103.364 290.009 106.159 289.214 112.091" fill="#F8A58D"/>
<path d="M273.389 92.8955L272.27 93.5739L260.736 81.289L261.274 80.962L261.855 80.6106L273.389 92.8955" fill="#CE3932"/>
<path d="M285.368 103.388L281.492 105.735L269.131 92.544L273.007 90.1949L285.368 103.388" fill="#EB5648"/>
<path d="M279.974 105.938C278.729 106.491 277.191 106.628 275.888 106.04C275.06 105.666 274.897 104.787 275.524 104.073C275.966 103.571 276.683 103.286 277.358 103.293L278.384 103.304C278.404 103.304 278.36 103.302 278.368 103.3C278.421 103.302 278.522 103.253 278.369 103.319C279.39 102.851 280.577 103.057 281.02 103.779C281.464 104.502 280.995 105.47 279.974 105.938Z" fill="#F8A58D"/>
<path d="M277.53 103.834C276.148 104.144 274.549 104.069 273.454 103.278C272.723 102.727 272.821 101.75 273.672 101.096C274.524 100.444 275.806 100.36 276.537 100.911C276.509 100.882 276.473 100.891 276.573 100.902C276.817 100.92 277.066 100.855 276.934 100.886C278.045 100.626 279.078 101.076 279.242 101.89C279.407 102.705 278.64 103.576 277.53 103.834" fill="#F8A58D"/>
<path d="M274.43 101.784L272.431 101.596C271.333 101.49 270.69 100.729 270.994 99.8985C271.299 99.0654 272.436 98.4731 273.534 98.5792L275.533 98.7693C276.631 98.8731 277.275 99.6334 276.97 100.464C276.665 101.297 275.528 101.89 274.43 101.784" fill="#F8A58D"/>
<path d="M272.819 99.4942L270.82 99.3041C269.722 99.2003 269.079 98.4401 269.384 97.6069C269.688 96.7738 270.825 96.1838 271.923 96.2876L273.922 96.4777C275.02 96.5815 275.664 97.3417 275.359 98.1749C275.054 99.008 273.917 99.5981 272.819 99.4942Z" fill="#F8A58D"/>
<path d="M284.91 105.339C283.2 102.168 280.776 98.8887 276.987 97.1141C275.889 96.6103 273.822 96.4953 274.301 95.0876C274.888 93.6866 277.005 94.3982 278.264 94.6722C283.044 96.0556 288.838 98.86 292.92 104.453C296.036 108.721 286.675 109.269 284.91 105.339Z" fill="#F8A58D"/>
<path d="M367.318 105.967C356.688 117.989 346.992 124.957 331.239 132.713C321.141 136.543 298.638 111.509 293.5 105.037C290.421 101.238 282.967 104.502 285.255 108.632C292.198 121.03 300.26 133.469 313.324 142.547C327.338 151.906 338.948 148.432 353.022 141.285C367.371 133.96 379.891 124.57 390.861 114.199C401.961 102.9 378.285 94.5373 367.318 105.967Z" fill="#F8A58D"/>
<path d="M285.975 111.125C285.975 111.125 286.308 112.756 287.254 115.432C289.513 121.838 295.289 134.238 308.43 144.594C327.02 159.245 347.982 155.464 361.983 149.051C371.773 144.565 397.373 123.982 397.373 123.982C397.425 123.936 384.75 94.849 384.75 94.849C384.75 94.849 370.057 96.2766 350.671 115.496C341.365 124.722 330.178 124.139 322.125 120.287C316.897 117.79 306.075 112.126 299.484 108.654C296.227 106.937 294.053 105.722 294.053 105.722C294.053 105.722 292.369 110.104 285.975 111.125" fill="#3A72AA"/>
<path d="M340.118 351.314H374.811C377.839 351.215 377.816 348.733 377.258 346.806C375.348 339.867 378.724 323.929 379.35 316.791C379.517 315.485 378.241 314.349 376.606 314.349C351.007 314.139 359.359 312.491 361.343 334.691C362.856 342.446 351.351 343.922 344.791 344.779C340.472 345.031 333.25 349.772 340.118 351.314" fill="#F8A58D"/>
<path d="M378.579 348.419C378.485 349.787 377.642 351.347 375.671 351.314C375.672 351.314 339.686 351.314 339.686 351.314C331.198 348.784 343.916 339.73 360.53 339.783C366.871 341.182 373.766 340.609 376.695 340.046C376.695 340.046 379.365 341.604 378.579 348.419" fill="#33535F"/>
<path d="M354.206 346.821C353.88 346.821 353.577 346.653 353.475 346.388C352.253 343.212 348.812 341.743 348.777 341.73C347.014 338.861 353.584 341.931 354.937 346.026C355.095 346.412 354.71 346.828 354.206 346.821Z" fill="#E8C0A6"/>
<path d="M360.969 346.154C360.652 346.154 360.356 345.995 360.246 345.74C358.818 342.441 355.521 340.645 355.488 340.627C353.537 336.391 364.305 345.02 360.969 346.154" fill="#E8C0A6"/>
<path d="M337.168 348.419H378.579C378.426 349.436 378.077 350.424 377.443 351.314H339.686C337.826 351.316 336.507 349.818 337.168 348.419" fill="#A6B7B9"/>
<path d="M426.264 349.299L426.853 349.051C426.853 349.382 427.363 350.534 427.775 350.534L445.192 350.821C445.604 350.821 445.858 350.198 445.858 349.866L447.344 349.524C447.344 347.429 447.129 346.669 445.977 345.044C441.742 340.521 446.797 320.287 446.651 315.001C447.695 313.556 428.31 314.689 428.04 314.347C427.604 314.349 427.261 314.647 427.295 314.994L429.577 338.116C430.6 342.508 426.41 345.159 426.264 349.299" fill="#F8A58D"/>
<path d="M444.584 351.314H429.203C424.398 350.786 424.893 345.845 428.445 342.587C432.77 338.618 441.131 338.572 445.412 342.574C448.907 345.842 449.358 350.797 444.584 351.314" fill="#33535F"/>
<path d="M442.408 343.442C438.136 341.359 431.582 343.235 431.557 343.387C427.096 342.614 437.645 339.586 442.795 342.296C443.466 342.587 443.158 343.464 442.408 343.442" fill="#E8C0A6"/>
<path d="M444.584 351.314H429.203C427.247 351.316 425.672 349.99 425.793 348.419H447.995C448.114 349.99 446.541 351.316 444.584 351.314Z" fill="#A6B7B9"/>
<path d="M353.853 327.763C354.207 329.812 354.579 331.77 354.972 333.65C368.026 337.586 384.378 333.739 384.378 333.739C384.303 332.238 384.243 330.722 384.197 329.191C384.181 328.716 384.168 328.241 384.156 327.763C382.84 276.025 397.28 217.836 397.285 217.889C407.249 270.231 415.523 302.977 420.704 326.976C421.156 329.074 421.585 331.01 421.988 332.777C436.805 337.957 451.017 332.777 451.017 332.777C451.017 332.777 451.017 330.705 450.976 326.992C450.647 297.6 446.487 195.39 439.363 169.773C410.858 181.136 353.917 158.631 353.917 158.631C347.796 252.048 348.847 298.802 353.853 327.763" fill="#1D3F70"/>
<path d="M388.932 94.08C388.256 87.0724 386.026 74.3743 392.865 71.8992C397.66 70.3081 403.691 73.3909 402.503 77.8925C402.043 77.6892 401.526 90.3939 402.756 93.8568C415.89 96.3761 377.789 108.407 388.932 94.08Z" fill="#F8A58D"/>
<path d="M402.593 77.3113C402.573 77.5058 402.545 77.7024 402.503 77.8925C402.171 77.7378 401.773 84.752 402.127 89.8149C396.365 92.2502 389.877 91.6226 388.655 91.479C387.691 83.9454 386.258 74.7102 392.866 71.8992C397.371 70.0982 403.117 73.2274 402.593 77.3113" fill="#F68260"/>
<path d="M358.056 183.614C358.056 183.614 355.166 162.306 358.213 145.491C362.422 123.089 369.773 108.745 384.749 94.8489C384.915 94.8113 387.49 94.1528 388.924 94.0843C388.58 96.1351 388.351 102.128 402.753 93.8567C402.806 93.9031 406.719 93.8279 407.867 94.3517C409.018 95.229 435.629 149.23 436.591 165.636C436.982 170.469 376.138 190.758 358.056 183.614" fill="#3A72AA"/>
<path d="M407.867 94.3517C402.741 99.8853 382.22 107.474 384.743 94.8556C384.913 94.8092 387.48 94.1529 388.924 94.0844C388.849 94.4158 386.903 103.076 402.756 93.8567C403.725 93.8037 406.73 93.8567 407.867 94.3517Z" fill="#23659B"/>
<path d="M348.264 347.398C347.962 347.398 347.676 347.254 347.555 347.013C346.172 344.271 343.679 343.431 343.573 343.398C341.629 340.93 347.28 342.687 348.972 346.554C349.183 346.945 348.793 347.407 348.264 347.398Z" fill="#E8C0A6"/>
<path d="M377.563 67.1833C377.563 67.1833 377.917 61.1856 380.404 57.1061L384.608 58.8917L377.563 67.1833Z" fill="#8E4A35"/>
<path d="M376.779 84.7365C381.695 89.0016 389.483 90.3695 395.784 89.4369C397.75 89.1695 399.629 88.6657 401.316 87.8767L401.318 87.879C401.889 87.6116 402.43 87.3199 402.949 86.995H402.956C427.506 68.2949 396.337 35.9487 380.536 63.1304C375.253 70.7633 366.409 74.7102 376.779 84.7365" fill="#F8A58D"/>
<path d="M387.63 69.3534C387.405 68.9711 387.61 68.5136 388.087 68.3324C388.565 68.1512 389.134 68.317 389.36 68.6993C389.585 69.0838 389.38 69.5412 388.903 69.7202C388.425 69.9014 387.856 69.7379 387.63 69.3534Z" fill="#C16256"/>
<path d="M379.636 68.0783C379.411 67.696 379.615 67.2363 380.093 67.0573C380.57 66.8761 381.14 67.0397 381.365 67.4242C381.591 67.8065 381.386 68.264 380.909 68.4452C380.431 68.6264 379.861 68.4629 379.636 68.0783Z" fill="#C16256"/>
<path d="M381.878 74.7831C382.436 74.8516 383.009 74.8406 383.496 74.7279C383.689 74.6837 383.799 74.5224 383.744 74.3677C383.689 74.213 383.485 74.1268 383.296 74.1688C382.073 74.4516 380.374 73.9235 380.155 73.4771C380.078 73.3202 380.343 73.1721 380.579 73.0771C382.662 72.2351 384.152 69.1501 384.214 69.0198C384.285 68.8695 384.193 68.7015 384.006 68.6463C383.813 68.5844 383.61 68.664 383.538 68.812C383.524 68.8408 382.087 71.8153 380.254 72.5578C379.255 72.9622 379.381 73.4837 379.481 73.6892C379.743 74.224 380.784 74.6527 381.878 74.7831" fill="#C16256"/>
<path d="M381.714 61.2541C386.978 59.1856 396.299 61.4132 400.913 61.495C400.913 61.495 399.694 67.8131 407.487 72.5246C407.94 78.3719 409.037 80.9465 401.316 87.8767L401.318 87.8789C401.889 87.6115 402.43 87.3198 402.949 86.995H402.956C426.591 69.17 397.896 37.0602 381.714 61.2541" fill="#F68260"/>
<path d="M380.794 50.4322C383.946 45.7915 390.343 41.533 397.738 47.5461C403.432 52.1758 409.766 52.2952 409.459 57.0177C422.87 61.8132 414.828 71.8683 414.828 71.8683L408.954 71.1655C402.384 66.6197 402.831 60.1845 402.831 60.1845H402.833C401.329 60.2066 399.749 60.116 398.36 59.7934C394.054 58.7967 387.649 58.2089 382.701 59.537C377.752 60.8674 377.271 55.6189 380.794 50.4322Z" fill="#8E4A35"/>
<path d="M415.524 75.7091C414.795 78.1289 412.239 79.7068 409.816 79.2339C407.393 78.761 406.02 76.4185 406.749 74.0008C407.478 71.5832 410.034 70.0053 412.457 70.476C414.88 70.949 416.253 73.2915 415.524 75.7091Z" fill="#F99370"/>
<path d="M409.857 72.3456C409.952 72.3168 412.214 71.6782 413.435 72.6439C413.747 72.8892 413.948 73.2163 414.054 73.6141C414.054 73.6141 414.054 73.6141 414.054 73.6163C414.064 73.6538 414.079 73.687 414.087 73.7246C414.087 73.7246 414.087 73.7268 414.087 73.7268C414.087 73.7268 414.087 73.7268 414.087 73.7268C414.241 74.4627 414.065 75.4394 413.557 76.6483C413.5 76.7831 413.331 76.8626 413.16 76.8427C413.14 76.8405 413.119 76.8361 413.098 76.8317C412.909 76.7786 412.807 76.6151 412.87 76.4626C413.283 75.4814 413.456 74.6814 413.404 74.0715C411.309 74.3212 410.193 76.1709 410.182 76.1908C410.113 76.3124 409.955 76.3764 409.8 76.3566C409.767 76.3543 409.734 76.3455 409.702 76.3323C409.52 76.266 409.441 76.0936 409.524 75.9477C409.578 75.8549 410.793 73.7864 413.254 73.4837C413.174 73.3157 413.071 73.1699 412.93 73.0594C412.032 72.35 410.119 72.887 410.101 72.8914C409.911 72.9445 409.706 72.8671 409.639 72.7146C409.572 72.5643 409.669 72.3986 409.857 72.3456" fill="#C16256"/>
<path d="M391.468 68.2242C391.476 68.222 391.484 68.2198 391.491 68.2176C391.677 68.1646 391.773 67.9988 391.705 67.8507C390.697 65.6231 388.082 64.8762 387.971 64.8452C387.785 64.7944 387.582 64.8717 387.518 65.022C387.453 65.1723 387.552 65.3358 387.738 65.3889C387.762 65.3955 390.146 66.0828 391.034 68.0474C391.098 68.1889 391.289 68.2662 391.468 68.2242" fill="#C16256"/>
<path d="M384.692 65.2143C384.808 65.1878 384.904 65.1126 384.938 65.0132C384.989 64.8585 384.876 64.7016 384.685 64.6596C381.785 64.0365 379.558 65.1701 379.465 65.2187C379.299 65.3049 379.252 65.4817 379.359 65.6143C379.465 65.7491 379.688 65.7866 379.852 65.7004C379.873 65.6894 381.916 64.6574 384.5 65.2143C384.566 65.2298 384.632 65.2275 384.692 65.2143" fill="#C16256"/>
<path d="M416.665 68.4363C416.665 68.4363 406.418 54.5074 378.231 55.2521C378.231 55.2521 381.617 43.5639 394.704 42.1209C400.472 41.4822 411.789 43.0336 415.926 49.0887C421.084 56.6421 416.665 68.4363 416.665 68.4363" fill="#EB5648"/>
<path d="M409.118 62.2354C409.118 62.2354 403.204 57.5747 397.168 55.535C391.132 53.4952 379.83 51.7472 374.929 53.5792C370.029 55.409 378.231 55.2521 378.231 55.2521C378.231 55.2521 395.289 54.3527 409.118 62.2354Z" fill="#CE3932"/>
<path d="M399.773 42.8413C399.773 42.8413 387.747 43.9109 382.076 53.6035C382.076 53.6035 393.51 55.2454 393.817 55.336C394.124 55.4244 397.289 46.5451 407.304 44.2534C407.304 44.2534 403.941 41.9662 399.773 42.8413" fill="#CE3932"/>
<path d="M382.273 78.1753C386.365 78.1753 388.071 75.9985 388.148 75.8991C388.26 75.751 388.203 75.5588 388.02 75.4704C387.837 75.3798 387.599 75.4262 387.488 75.572C387.411 75.6715 385.604 77.9388 381.133 77.4946C380.922 77.4748 380.727 77.5941 380.701 77.7665C380.675 77.9366 380.826 78.0913 381.038 78.1134C381.472 78.1554 381.883 78.1753 382.273 78.1753" fill="#C16256"/>
<path d="M384.743 94.8555C384.743 94.8555 374.577 109.043 371.97 126.864C371.97 126.864 387.07 130.682 402.627 126.864C402.627 126.864 402.036 107.025 407.867 94.3517C407.867 94.3517 411.417 92.9616 414.141 95.2754C414.141 95.2754 409.404 121.436 411.136 130.311C412.869 139.186 423.698 157.813 437.699 155.493C437.699 155.493 439.363 170.569 439.363 169.773C439.363 169.773 407.709 195.872 357.264 188.843C357.264 188.843 352.66 161.897 357.581 141.73C362.502 121.56 371.824 104.223 379.302 96.2367C379.302 96.2367 381.387 93.8191 384.743 94.8555" fill="#1D3F70"/>
<path d="M366.087 176.989C367.976 177.468 369.847 177.915 371.695 178.328C405.049 185.773 431.233 182.111 446.233 156.001C456.877 137.478 451.639 98.7229 414.142 95.2755C414.142 95.2755 409.49 107.993 411.136 122.674C412.407 134.011 414.928 147.871 398.77 157.679C390.822 162.505 380.827 166.237 373.191 167.895C371.126 168.343 369.234 168.637 367.602 168.766C367.602 168.766 369.069 170.511 368.642 173.115C368.097 176.436 366.087 176.989 366.087 176.989" fill="#3A72AA"/>
<path d="M340.497 186.898L362.525 182.292L353.958 155.807L331.929 160.412L340.497 186.898Z" fill="#CE3932"/>
<path d="M337.996 187.422L360.025 182.816L351.457 156.328L329.428 160.934L337.996 187.422Z" fill="#EB5648"/>
<path d="M356.673 164.14L357.699 167.309C354.712 168.12 351.702 168.164 351.69 168.18C348.05 167.778 344.443 167.227 340.863 166.553C340.309 166.447 339.709 166.494 339.23 166.741C336.535 168.133 349.27 170.456 350.474 170.849C350.468 170.876 350.468 170.872 350.462 170.898C346.625 171.126 342.768 171.194 338.927 171.022C338.338 170.995 337.738 171.139 337.328 171.479C335.012 173.4 349.652 173.437 350.968 173.526C350.967 173.539 350.967 173.534 350.967 173.548C347.413 174.25 343.758 174.626 340.097 174.704C339.517 174.715 338.944 174.9 338.59 175.269C336.512 177.431 351.196 176.465 352.612 176.195C352.62 176.204 352.629 176.215 352.637 176.226C349.981 177.092 347.199 177.709 344.394 178.204C343.858 178.297 343.362 178.536 343.064 178.905C341.294 181.103 352.903 179.046 354.165 178.77C356.759 178.219 361.62 178.602 366.086 176.991C369.431 175.782 370.902 170.498 367.418 168.648C365.662 167.716 362.579 165.977 361.599 165.705C359.975 164.964 358.326 163.594 356.673 164.14" fill="#F8A58D"/>
<path d="M353.853 327.763C354.207 329.812 354.579 331.77 354.972 333.65C368.026 337.586 384.378 333.739 384.378 333.739C384.28 331.774 384.207 329.779 384.156 327.763C384.156 327.763 369.9 330.72 353.853 327.763Z" fill="#0F2E54"/>
<path d="M377.388 331.593L384.197 329.191C384.182 328.716 384.169 328.24 384.156 327.763C382.84 276.025 396.254 220.722 397.231 217.951C396.66 218.625 390.568 223.825 386.092 241.405C381.343 260.074 376.065 316.426 377.388 331.593" fill="#0F2E54"/>
<path d="M420.704 326.976C421.156 329.073 421.585 331.009 421.988 332.777C436.805 337.957 451.017 332.777 451.017 332.777C451.017 332.777 451.017 330.704 450.976 326.992C450.18 327.253 437.898 331.129 420.704 326.976Z" fill="#0F2E54"/>
<path d="M339.794 159.374L341.331 159.206C341.309 159.077 340.776 156.043 338.379 152.841C336.149 149.862 331.831 146.191 323.918 145.621C295.55 143.573 293.764 133.854 291.695 122.599C290.537 116.294 289.339 109.775 283.359 104.115L282.178 104.924C287.87 110.309 289.035 116.65 290.162 122.78C292.236 134.066 294.195 144.726 323.779 146.861C337.693 147.867 339.775 159.256 339.794 159.374" fill="#EB5648"/>
<path d="M366.087 176.989C367.976 177.468 369.847 177.915 371.695 178.328C376.996 173.168 373.298 168.039 373.191 167.895C371.126 168.344 369.234 168.637 367.602 168.766C367.602 168.766 369.069 170.511 368.642 173.115C368.097 176.436 366.087 176.989 366.087 176.989" fill="#23659B"/>
<path d="M285.975 111.125C285.975 111.125 286.308 112.756 287.254 115.432C295.299 115.611 299.484 108.654 299.484 108.654C296.227 106.937 294.053 105.722 294.053 105.722C294.053 105.722 292.369 110.104 285.975 111.125" fill="#23659B"/>
<path d="M229.842 328.388H196.316V296.891H229.842V328.388ZM193.652 332.671H232.506C233.977 332.671 235.17 331.712 235.17 330.53V294.75C235.17 293.565 233.977 292.606 232.506 292.606H193.652C192.182 292.606 190.989 293.565 190.989 294.75V330.53C190.989 331.712 192.182 332.671 193.652 332.671Z" fill="#1D3F70"/>
<path d="M179.158 351.314H247.001C255.748 351.314 263.109 346.046 264.12 339.058L268.74 307.112H157.419L162.037 339.058C163.049 346.046 170.41 351.314 179.158 351.314Z" fill="#1D3F70"/>
<path d="M159.599 315.861H266.559C268.846 315.861 270.613 314.245 270.32 312.422L269.166 305.222C268.923 303.702 267.312 302.564 265.405 302.564H160.754C158.846 302.564 157.235 303.702 156.99 305.222L155.838 312.422C155.544 314.245 157.312 315.861 159.599 315.861" fill="#0F2E54"/>
<path d="M207.122 320.649H219.036V311.072H207.122V320.649Z" fill="#EB5648"/>
<path d="M1.31121 353H478.764C479.488 353 480.075 352.527 480.075 351.946C480.075 351.365 479.488 350.892 478.764 350.892H1.31121C0.588247 350.892 1.31428e-06 351.365 1.31428e-06 351.946C1.31428e-06 352.527 0.588247 353 1.31121 353" fill="#4867AA"/>
</svg>
