<svg width="600" height="388" viewBox="0 0 600 388" fill="none" xmlns="http://www.w3.org/2000/svg">
<path d="M399.687 6.10352e-05V117.494H224.737L218.433 0.821854L399.687 6.10352e-05Z" fill="#DADBD8"/>
<path d="M393.384 0.821815V117.245H218.433V0.821815H393.384Z" fill="white"/>
<path d="M219.263 116.445H392.554V1.62198H219.263V116.445ZM394.214 118.046H217.603V0.0208817H394.214V118.046Z" fill="#DADBD8"/>
<path d="M374.436 15.2864V102.781H237.381V15.2864H374.436Z" fill="white"/>
<path d="M374.436 15.2865C374.436 15.2865 374.2 15.3012 373.76 15.309C373.295 15.315 372.65 15.322 371.811 15.3315C370.074 15.3419 367.554 15.3575 364.284 15.3783C357.701 15.4016 348.129 15.4371 336.04 15.4804C311.871 15.5272 277.66 15.5921 237.381 15.6692L237.777 15.2865C237.789 42.0188 237.801 71.6381 237.813 102.77V102.781L237.381 102.364C289.082 102.396 336.748 102.426 374.436 102.449L374.091 102.781C374.166 76.1548 374.228 54.3237 374.271 39.1213C374.31 31.5228 374.339 25.5868 374.359 21.5177C374.377 19.507 374.389 17.9639 374.398 16.8919C374.411 15.8433 374.436 15.2865 374.436 15.2865C374.436 15.2865 374.46 15.7956 374.473 16.8218C374.481 17.8791 374.494 19.4022 374.511 21.3852C374.531 25.4369 374.561 31.3487 374.598 38.9152C374.642 54.1661 374.703 76.0682 374.78 102.781L374.781 103.113H374.436C336.748 103.137 289.082 103.166 237.381 103.198H236.949V102.781V102.77C236.962 71.6381 236.974 42.0188 236.984 15.2865L236.985 14.9037H237.381C277.767 14.9808 312.068 15.0457 336.3 15.0925C348.351 15.1358 357.892 15.1713 364.454 15.1947C367.689 15.2155 370.183 15.231 371.901 15.2414C372.722 15.251 373.352 15.2587 373.806 15.2639C374.231 15.2717 374.436 15.2865 374.436 15.2865Z" fill="#DADBD8"/>
<path d="M218.433 0.494516C218.506 0.404459 219.651 1.12842 221.441 2.3745C223.23 3.62145 225.667 5.38881 228.299 7.41943C230.931 9.45264 233.246 11.3742 234.876 12.8133C236.505 14.2525 237.458 15.2016 237.381 15.2865C237.219 15.4631 233.012 12.118 227.758 8.07061C222.502 4.02842 218.279 0.685022 218.433 0.494516Z" fill="#DADBD8"/>
<path d="M393.384 0.821849C393.532 1.00283 389.409 4.38691 384.178 8.38061C378.944 12.376 374.584 15.4674 374.436 15.2864C374.288 15.1063 378.407 11.7223 383.641 7.72769C388.873 3.73313 393.235 0.641734 393.384 0.821849Z" fill="#DADBD8"/>
<path d="M393.245 117.263C386.743 112.179 380.241 107.096 373.738 102.013L393.245 117.263Z" fill="white"/>
<path d="M373.738 102.013C373.889 101.834 378.378 105.103 383.763 109.313C389.151 113.525 393.395 117.083 393.245 117.263C393.095 117.442 388.608 114.173 383.219 109.961C377.834 105.751 373.588 102.192 373.738 102.013Z" fill="#DADBD8"/>
<path d="M218.433 117.245C218.285 117.065 222.363 113.716 227.542 109.765C232.722 105.814 237.039 102.758 237.187 102.938C237.336 103.119 233.258 106.468 228.078 110.419C222.9 114.369 218.581 117.426 218.433 117.245Z" fill="#DADBD8"/>
<path d="M351.445 42.5461V71.8424H265.209V42.5461H351.445Z" fill="#DADBD8"/>
<path d="M473.372 359.984H591.53V144.542H473.372V359.984Z" fill="#DADBD8"/>
<path d="M438.305 359.984H556.464V144.542H438.305V359.984Z" fill="#F3F2F1"/>
<path d="M447.59 187.686H546.519V155.939H447.59V187.686ZM547.766 188.888H446.343V154.737H547.766V188.888Z" fill="#DADBD8"/>
<path d="M512.544 162.143H482.939C480.486 162.143 478.498 160.224 478.498 157.858V155.338H516.987V157.858C516.987 160.224 514.999 162.143 512.544 162.143Z" fill="#E7E8E5"/>
<path d="M447.59 231.066H546.519V199.319H447.59V231.066ZM547.766 232.268H446.343V198.118H547.766V232.268Z" fill="#DADBD8"/>
<path d="M512.544 205.523H482.939C480.486 205.523 478.498 203.605 478.498 201.239V198.719H516.987V201.238C516.987 203.605 514.999 205.523 512.544 205.523Z" fill="#E7E8E5"/>
<path d="M447.59 274.447H546.519V242.7H447.59V274.447ZM547.766 275.65H446.343V241.498H547.766V275.65Z" fill="#DADBD8"/>
<path d="M512.544 248.904H482.939C480.486 248.904 478.498 246.986 478.498 244.62V242.099H516.987V244.62C516.987 246.986 514.999 248.904 512.544 248.904Z" fill="#E7E8E5"/>
<path d="M447.59 317.828H546.519V286.081H447.59V317.828ZM547.766 319.029H446.343V284.879H547.766V319.029Z" fill="#DADBD8"/>
<path d="M512.544 292.286H482.939C480.486 292.286 478.498 290.367 478.498 288V285.479H516.987V288C516.987 290.367 514.999 292.286 512.544 292.286Z" fill="#E7E8E5"/>
<path d="M561.406 147.21H433.064V136.478H561.406V147.21Z" fill="#E7E8E5"/>
<path d="M600 147.21H561.406V136.478H600V147.21Z" fill="#DADBD8"/>
<path d="M444.514 370.989H438.305V359.984H444.514V370.989Z" fill="#DADBD8"/>
<path d="M482.88 370.989H476.671V359.984H482.88V370.989Z" fill="#DADBD8"/>
<path d="M552.961 370.989H546.751V359.984H552.961V370.989Z" fill="#DADBD8"/>
<path d="M588 370.989H581.791V359.984H588V370.989Z" fill="#DADBD8"/>
<path d="M547.704 107.828L559.665 137.342L552.23 137.309L546.271 119.172L547.704 107.828Z" fill="#DADBD8"/>
<path d="M506.862 80.5581L502.751 137.108L545.196 137.963L549.973 80.5581H506.862Z" fill="#E7E8E5"/>
<path d="M511.109 85.112L507.686 132.182L539.241 133.608L543.648 84.8332L511.109 85.112Z" fill="#FAFAF9"/>
<path d="M518.033 91.7685L515.473 124.854H532.879L535.95 91.7685H518.033Z" fill="#DADBD8"/>
<path d="M204.158 321.166H23.7658V240.919H204.158V321.166Z" fill="#F3F2F1"/>
<path d="M29.0169 316.302H198.742V246.224H29.0169V316.302ZM199.864 317.385H27.8947V245.141H199.864V317.385Z" fill="#DADBD8"/>
<path d="M248.228 321.166H204.158V240.919H248.228V321.166Z" fill="#DADBD8"/>
<path d="M28.4558 267.5C47.7815 267.5 67.1062 267.5 86.432 267.5C116.965 267.5 147.498 267.5 178.031 267.5C185.122 267.5 192.213 267.5 199.303 267.5C199.595 267.5 199.595 267.063 199.303 267.063C179.978 267.063 160.653 267.063 141.328 267.063C110.795 267.063 80.261 267.063 49.7282 267.063C42.6374 267.063 35.5465 267.063 28.4558 267.063C28.1647 267.063 28.1637 267.5 28.4558 267.5Z" fill="#DADBD8"/>
<path d="M114.438 267.281C114.95 260.157 114.895 252.613 114.496 245.483C114.48 245.198 114.052 245.198 114.035 245.483C113.638 252.613 113.582 260.157 114.094 267.281C114.11 267.494 114.422 267.495 114.438 267.281Z" fill="#DADBD8"/>
<path d="M160.424 256.382C160.424 257.621 159.382 258.627 158.097 258.627C156.81 258.627 155.769 257.621 155.769 256.382C155.769 255.142 156.81 254.137 158.097 254.137C159.382 254.137 160.424 255.142 160.424 256.382Z" fill="#DADBD8"/>
<path d="M70.7625 256.382C70.7625 257.621 69.7205 258.627 68.4353 258.627C67.1497 258.627 66.1075 257.621 66.1075 256.382C66.1075 255.142 67.1497 254.137 68.4353 254.137C69.7205 254.137 70.7625 255.142 70.7625 256.382Z" fill="#DADBD8"/>
<path d="M116.207 281.263C116.207 282.503 115.166 283.508 113.88 283.508C112.594 283.508 111.552 282.503 111.552 281.263C111.552 280.023 112.594 279.018 113.88 279.018C115.166 279.018 116.207 280.023 116.207 281.263Z" fill="#DADBD8"/>
<path d="M45.3338 321.166L36.046 371.547H41.27L58.3938 321.166H45.3338Z" fill="#DADBD8"/>
<path d="M191.395 321.166L199.162 371.634H193.938L178.336 321.166H191.395Z" fill="#DADBD8"/>
<path d="M226.269 321.166L235.068 371.634H229.844L213.208 321.166H226.269Z" fill="#DADBD8"/>
<path d="M116.051 303.974C116.051 305.214 115.009 306.218 113.724 306.218C112.438 306.218 111.396 305.214 111.396 303.974C111.396 302.734 112.438 301.728 113.724 301.728C115.009 301.728 116.051 302.734 116.051 303.974Z" fill="#DADBD8"/>
<path d="M28.4558 292.349C47.7815 292.349 67.1062 292.349 86.432 292.349C116.965 292.349 147.498 292.349 178.031 292.349C185.122 292.349 192.213 292.349 199.303 292.349C199.595 292.349 199.595 291.912 199.303 291.912C179.978 291.912 160.653 291.912 141.328 291.912C110.795 291.912 80.261 291.912 49.7282 291.912C42.6374 291.912 35.5465 291.912 28.4558 291.912C28.1647 291.912 28.1637 292.349 28.4558 292.349Z" fill="#DADBD8"/>
<path d="M168.131 240.886C168.131 240.886 167.979 240.866 167.69 240.804C167.398 240.749 166.966 240.665 166.393 240.597C165.247 240.443 163.542 240.391 161.342 240.419C160.242 240.425 159.015 240.433 157.674 240.323C156.338 240.209 154.87 239.98 153.407 239.388C151.947 238.808 150.523 237.76 149.603 236.247C149.147 235.495 148.827 234.621 148.776 233.688C148.72 232.765 148.966 231.765 149.583 230.975C150.18 230.179 151.058 229.552 152.083 229.246C153.096 228.944 154.336 229.041 155.236 229.743C156.14 230.421 156.638 231.518 156.728 232.625C156.826 233.746 156.467 234.895 155.83 235.857C155.197 236.831 154.324 237.653 153.352 238.349C152.384 239.055 151.292 239.625 150.135 240.077C147.819 240.984 145.193 241.329 142.576 241.026C139.965 240.731 137.326 239.768 135.192 238.055C133.051 236.362 131.391 234.039 130.461 231.42C129.524 228.806 129.344 225.863 130.158 223.093C130.574 221.717 131.24 220.386 132.199 219.248C133.153 218.116 134.42 217.17 135.906 216.714C137.379 216.256 138.993 216.229 140.455 216.701C141.918 217.159 143.188 218.219 143.791 219.578C144.42 220.925 144.458 222.452 144.099 223.833C143.755 225.223 142.994 226.499 141.946 227.484C139.811 229.441 136.872 230.173 134.144 230.241C131.381 230.304 128.698 229.75 126.253 228.838C121.338 226.99 117.443 223.736 114.538 220.26C111.595 216.77 109.696 212.941 108.386 209.361C107.078 205.766 106.338 202.386 105.809 199.413C105.3 196.433 105.012 193.848 104.799 191.735C104.589 189.622 104.466 187.978 104.381 186.864C104.345 186.322 104.316 185.9 104.296 185.596C104.279 185.31 104.282 185.162 104.282 185.162C104.282 185.162 104.311 185.307 104.343 185.592C104.375 185.895 104.419 186.316 104.475 186.857C104.593 187.988 104.763 189.622 104.981 191.717C105.22 193.826 105.535 196.404 106.068 199.37C106.618 202.33 107.378 205.69 108.697 209.253C110.02 212.805 111.917 216.583 114.84 220.024C117.725 223.452 121.58 226.648 126.407 228.45C128.806 229.34 131.444 229.877 134.132 229.811C136.791 229.741 139.615 229.02 141.63 227.165C142.607 226.244 143.329 225.038 143.65 223.727C143.989 222.424 143.946 220.996 143.367 219.762C142.813 218.518 141.663 217.555 140.306 217.128C138.951 216.69 137.432 216.713 136.051 217.143C134.664 217.567 133.471 218.456 132.56 219.532C131.647 220.615 131.006 221.893 130.605 223.219C129.819 225.887 129.987 228.739 130.893 231.277C131.794 233.82 133.405 236.078 135.474 237.721C137.537 239.383 140.088 240.321 142.627 240.614C145.171 240.913 147.73 240.584 149.982 239.708C152.215 238.836 154.27 237.486 155.501 235.658C156.109 234.744 156.44 233.689 156.354 232.652C156.274 231.625 155.817 230.625 155.013 230.017C154.216 229.391 153.121 229.295 152.182 229.567C151.236 229.842 150.408 230.425 149.851 231.163C149.274 231.895 149.046 232.798 149.091 233.673C149.132 234.549 149.429 235.38 149.861 236.104C150.734 237.559 152.094 238.581 153.51 239.156C154.93 239.745 156.372 239.984 157.694 240.109C159.021 240.231 160.243 240.235 161.342 240.244C163.542 240.242 165.259 240.322 166.406 240.508C167.555 240.678 168.131 240.886 168.131 240.886Z" fill="#DADBD8"/>
<path d="M82.0046 185.579L67.7476 240.978H73.5223L88.3207 185.579H82.0046Z" fill="#F3F2F1"/>
<path d="M123.329 185.579L137.586 240.978H131.811L117.012 185.579H123.329Z" fill="#F3F2F1"/>
<path d="M105.337 240.978H98.6139V170.515H105.337V240.978Z" fill="#F3F2F1"/>
<path d="M149.244 172.626H54.3834V114.005H149.244V172.626Z" fill="#DADBD8"/>
<path d="M125.648 190.341H78.0342V184.68H125.648V190.341Z" fill="#F3F2F1"/>
<path d="M60.6873 164.979C60.7098 164.979 60.7315 165.316 60.7522 166.051H60.6224C60.5246 163.184 60.4538 153.686 60.4538 142.429C60.4804 135.637 60.5046 129.49 60.5221 124.966C60.5527 122.778 60.5782 120.985 60.5965 119.674C60.6141 119.09 60.6288 118.614 60.6404 118.235C60.6554 117.906 60.6712 117.734 60.6873 117.734C60.7035 117.734 60.7193 117.906 60.7346 118.235C60.7462 118.613 60.7607 119.09 60.7785 119.674C60.7971 120.985 60.822 122.778 60.8529 124.966C60.8707 129.49 60.8946 135.637 60.9209 142.429C60.9209 153.686 60.8501 163.184 60.7522 166.051H60.6224C60.6431 165.316 60.6649 164.979 60.6873 164.979Z" fill="#F3F2F1"/>
<path d="M67.7477 164.979C67.7705 164.979 67.7918 165.316 67.8125 166.051H67.6828C67.5853 163.184 67.5137 153.686 67.5137 142.429C67.5407 135.637 67.5646 129.49 67.5825 124.966C67.613 122.778 67.6386 120.985 67.6568 119.674C67.6743 119.09 67.689 118.614 67.7006 118.235C67.7161 117.906 67.7319 117.734 67.7477 117.734C67.7637 117.734 67.7795 117.906 67.795 118.235C67.8062 118.613 67.8206 119.09 67.8388 119.674C67.857 120.985 67.882 122.778 67.9128 124.966C67.9307 129.49 67.9549 135.637 67.9815 142.429C67.9815 153.686 67.91 163.184 67.8128 166.051H67.6828C67.7031 165.316 67.7252 164.979 67.7477 164.979Z" fill="#F3F2F1"/>
<path d="M74.8079 164.979C74.8303 164.979 74.8524 165.316 74.8728 166.051H74.7427C74.6456 163.184 74.574 153.686 74.574 142.429C74.6007 135.637 74.6248 129.49 74.6427 124.966C74.6736 122.778 74.6984 120.985 74.7167 119.674C74.735 119.09 74.7493 118.614 74.7606 118.235C74.776 117.906 74.7917 117.734 74.8079 117.734C74.824 117.734 74.8395 117.906 74.8549 118.235C74.8665 118.613 74.8812 119.09 74.8987 119.674C74.9173 120.985 74.9425 122.778 74.9734 124.966C74.9909 129.49 75.0152 135.637 75.0418 142.429C75.0418 153.686 74.9703 163.184 74.8728 166.051H74.7427C74.7633 165.316 74.7851 164.979 74.8079 164.979Z" fill="#F3F2F1"/>
<path d="M81.8682 164.979C81.8907 164.979 81.9124 165.316 81.9331 166.051H81.8033C81.7055 163.184 81.6346 153.686 81.6346 142.429C81.6609 135.637 81.6848 129.49 81.7031 124.966C81.7336 122.778 81.7588 120.985 81.777 119.674C81.7949 119.09 81.8093 118.614 81.8208 118.235C81.8363 117.906 81.8521 117.734 81.8682 117.734C81.8843 117.734 81.9001 117.906 81.9152 118.235C81.9271 118.613 81.9415 119.09 81.959 119.674C81.9773 120.985 82.0029 122.778 82.0334 124.966C82.0509 129.49 82.0751 135.637 82.1017 142.429C82.1017 153.686 82.0302 163.184 81.9331 166.051H81.8033C81.8241 165.316 81.8454 164.979 81.8682 164.979Z" fill="#F3F2F1"/>
<path d="M88.9281 164.979C88.9505 164.979 88.9726 165.316 88.9934 166.051H88.8633C88.7658 163.184 88.6946 153.686 88.6946 142.429C88.7212 135.637 88.7454 129.49 88.7629 124.966C88.7938 122.778 88.819 120.985 88.8377 119.674C88.8552 119.09 88.8696 118.614 88.8815 118.235C88.8962 117.906 88.912 117.734 88.9281 117.734C88.9446 117.734 88.9604 117.906 88.9755 118.235C88.9871 118.613 89.0014 119.09 89.0197 119.674C89.0379 120.985 89.0627 122.778 89.0936 124.966C89.1115 129.49 89.1357 135.637 89.162 142.429C89.162 153.686 89.0908 163.184 88.9934 166.051H88.8633C88.8839 165.316 88.906 164.979 88.9281 164.979Z" fill="#F3F2F1"/>
<path d="M95.988 164.979C96.0113 164.979 96.0329 165.316 96.0535 166.051H95.9234C95.8264 163.184 95.7546 153.686 95.7546 142.429C95.7815 135.637 95.8058 129.49 95.8228 124.966C95.8542 122.778 95.8794 120.985 95.8973 119.674C95.9153 119.09 95.9305 118.614 95.9413 118.235C95.9566 117.906 95.9727 117.734 95.988 117.734C96.005 117.734 96.0203 117.906 96.0356 118.235C96.0472 118.613 96.0616 119.09 96.0796 119.674C96.0984 120.985 96.1227 122.778 96.1541 124.966C96.172 129.49 96.1954 135.637 96.2223 142.429C96.2223 153.686 96.1514 163.184 96.0535 166.051H95.9234C95.944 165.316 95.9664 164.979 95.988 164.979Z" fill="#F3F2F1"/>
<path d="M103.049 164.979C103.071 164.979 103.094 165.316 103.113 166.051H102.983C102.886 163.184 102.814 153.686 102.814 142.429C102.841 135.637 102.866 129.49 102.884 124.966C102.914 122.778 102.939 120.985 102.958 119.674C102.976 119.09 102.99 118.614 103.001 118.235C103.017 117.906 103.033 117.734 103.049 117.734C103.065 117.734 103.08 117.906 103.095 118.235C103.107 118.613 103.122 119.09 103.139 119.674C103.158 120.985 103.183 122.778 103.214 124.966C103.232 129.49 103.256 135.637 103.282 142.429C103.282 153.686 103.211 163.184 103.113 166.051H102.983C103.004 165.316 103.026 164.979 103.049 164.979Z" fill="#F3F2F1"/>
<path d="M110.109 164.979C110.131 164.979 110.153 165.316 110.174 166.051H110.044C109.946 163.184 109.875 153.686 109.875 142.429C109.902 135.637 109.925 129.49 109.943 124.966C109.975 122.778 109.999 120.985 110.018 119.674C110.036 119.09 110.05 118.614 110.062 118.235C110.077 117.906 110.092 117.734 110.109 117.734C110.126 117.734 110.141 117.906 110.156 118.235C110.168 118.613 110.182 119.09 110.2 119.674C110.218 120.985 110.243 122.778 110.275 124.966C110.292 129.49 110.316 135.637 110.343 142.429C110.343 153.686 110.271 163.184 110.174 166.051H110.044C110.065 165.316 110.086 164.979 110.109 164.979Z" fill="#F3F2F1"/>
<path d="M117.169 164.979C117.192 164.979 117.213 165.316 117.234 166.051H117.104C117.007 163.184 116.935 153.686 116.935 142.429C116.962 135.637 116.986 129.49 117.004 124.966C117.035 122.778 117.06 120.985 117.079 119.674C117.096 119.09 117.11 118.614 117.122 118.235C117.137 117.906 117.153 117.734 117.169 117.734C117.186 117.734 117.201 117.906 117.216 118.235C117.228 118.613 117.242 119.09 117.26 119.674C117.279 120.985 117.304 122.778 117.335 124.966C117.353 129.49 117.377 135.637 117.403 142.429C117.403 153.686 117.332 163.184 117.234 166.051H117.104C117.125 165.316 117.147 164.979 117.169 164.979Z" fill="#F3F2F1"/>
<path d="M124.229 164.979C124.252 164.979 124.273 165.316 124.295 166.051H124.165C124.067 163.184 123.996 153.686 123.996 142.429C124.022 135.637 124.046 129.49 124.064 124.966C124.095 122.778 124.12 120.985 124.139 119.674C124.156 119.09 124.171 118.614 124.183 118.235C124.198 117.906 124.213 117.734 124.229 117.734C124.245 117.734 124.262 117.906 124.277 118.235C124.288 118.613 124.303 119.09 124.321 119.674C124.339 120.985 124.364 122.778 124.394 124.966C124.412 129.49 124.437 135.637 124.464 142.429C124.464 153.686 124.392 163.184 124.295 166.051H124.165C124.185 165.316 124.207 164.979 124.229 164.979Z" fill="#F3F2F1"/>
<path d="M131.29 164.979C131.313 164.979 131.334 165.316 131.355 166.051H131.225C131.128 163.184 131.056 153.686 131.056 142.429C131.083 135.637 131.107 129.49 131.125 124.966C131.155 122.778 131.181 120.985 131.199 119.674C131.216 119.09 131.231 118.614 131.242 118.235C131.258 117.906 131.274 117.734 131.29 117.734C131.306 117.734 131.321 117.906 131.337 118.235C131.348 118.613 131.363 119.09 131.381 119.674C131.399 120.985 131.425 122.778 131.455 124.966C131.472 129.49 131.497 135.637 131.523 142.429C131.523 153.686 131.452 163.184 131.355 166.051H131.225C131.245 165.316 131.267 164.979 131.29 164.979Z" fill="#F3F2F1"/>
<path d="M138.35 164.979C138.372 164.979 138.394 165.316 138.415 166.051H138.285C138.187 163.184 138.117 153.686 138.117 142.429C138.143 135.637 138.167 129.49 138.185 124.966C138.215 122.778 138.24 120.985 138.258 119.674C138.276 119.09 138.292 118.614 138.302 118.235C138.318 117.906 138.334 117.734 138.35 117.734C138.366 117.734 138.382 117.906 138.397 118.235C138.408 118.613 138.424 119.09 138.441 119.674C138.459 120.985 138.485 122.778 138.515 124.966C138.533 129.49 138.556 135.637 138.583 142.429C138.583 153.686 138.512 163.184 138.415 166.051H138.285C138.306 165.316 138.327 164.979 138.35 164.979Z" fill="#F3F2F1"/>
<path d="M145.41 164.979C145.433 164.979 145.455 165.316 145.474 166.051H145.345C145.248 163.184 145.176 153.686 145.176 142.429C145.203 135.637 145.228 129.49 145.245 124.966C145.275 122.778 145.301 120.985 145.319 119.674C145.337 119.09 145.351 118.614 145.363 118.235C145.378 117.906 145.394 117.734 145.41 117.734C145.426 117.734 145.442 117.906 145.457 118.235C145.469 118.613 145.483 119.09 145.501 119.674C145.519 120.985 145.544 122.778 145.575 124.966C145.593 129.49 145.617 135.637 145.643 142.429C145.643 153.686 145.572 163.184 145.474 166.051H145.345C145.366 165.316 145.387 164.979 145.41 164.979Z" fill="#F3F2F1"/>
<path d="M122.054 300.134C125.986 298.178 130.616 297.924 134.981 298.62C137.326 298.994 139.77 299.67 141.366 301.369C142.963 303.069 143.265 306.058 141.433 307.518C140.341 308.388 138.82 308.52 137.405 308.504C133.989 308.465 130.197 307.884 127.467 309.868C125.91 311 124.873 312.881 123.011 313.437C121.189 313.981 119.133 312.944 118.167 311.359C117.201 309.772 117.168 307.79 117.619 306.002C117.619 306.002 118.093 302.105 122.054 300.134Z" fill="#F2575D"/>
<path d="M113.046 283.361C115.45 286.673 120.123 285.577 122.289 283.556C124.456 281.534 125.372 278.604 126.205 275.808C128.11 269.425 130.031 262.728 128.614 256.225C128.191 254.282 127.437 252.344 126.021 250.902C124.605 249.46 122.428 248.602 120.437 249.109C118.081 249.71 116.616 251.935 115.558 254.053C112.447 260.277 110.8 267.177 110.776 274.086C110.764 277.313 111.158 280.697 113.046 283.361Z" fill="#F2575D"/>
<path d="M106.443 288.272C109.054 285.284 109.549 280.925 108.388 277.181C107.226 273.438 104.602 270.253 101.577 267.652C98.0312 264.604 93.863 262.232 89.3826 260.712C87.619 260.113 85.7591 259.641 83.8983 259.814C82.0369 259.984 80.1629 260.902 79.2949 262.499C78.0121 264.86 79.2423 267.723 80.5735 270.06C82.9181 274.177 85.5991 278.114 88.5834 281.826C90.9839 284.811 93.7337 287.756 97.3929 289.105C101.052 290.454 104.852 290.296 106.792 287.848" fill="#F2575D"/>
<path d="M112.883 333.483C112.928 333.486 113.001 332.95 113.1 331.978C113.211 330.883 113.349 329.508 113.515 327.87C113.713 326.143 113.975 324.085 114.473 321.846C114.969 319.612 115.746 317.191 116.743 314.735C117.775 312.294 119.035 310.076 120.507 308.302C121.969 306.519 123.668 305.229 125.266 304.485C126.859 303.726 128.287 303.418 129.275 303.281C130.27 303.183 130.828 303.107 130.829 303.064C130.829 303.021 130.27 303.014 129.247 303.041C128.234 303.106 126.747 303.354 125.068 304.089C123.384 304.81 121.581 306.12 120.048 307.94C118.503 309.751 117.196 312.018 116.146 314.503C115.131 317.002 114.366 319.447 113.892 321.73C113.419 324.008 113.203 326.088 113.061 327.83C112.926 329.574 112.875 330.987 112.85 331.963C112.828 332.94 112.839 333.48 112.883 333.483Z" fill="#17282F"/>
<path d="M113.176 330.323C113.199 330.322 113.212 330.081 113.218 329.625C113.217 329.099 113.215 328.439 113.212 327.627C113.208 325.894 113.209 323.386 113.305 320.288C113.463 314.095 114.017 307.429 115.085 298.03C116.096 289.192 117.454 278.908 118.886 272.222C119.193 270.7 119.503 269.331 119.794 268.134C120.072 266.932 120.309 265.897 120.538 265.059C120.733 264.27 120.894 263.627 121.021 263.117C121.125 262.671 121.169 262.435 121.148 262.429C121.127 262.423 121.04 262.648 120.897 263.084C120.738 263.586 120.54 264.22 120.295 264.997C120.029 265.827 119.756 266.856 119.443 268.052C119.118 269.246 118.777 270.61 118.441 272.129C117.023 278.188 115.523 286.657 114.445 296.078C113.375 305.495 112.893 314.072 112.849 320.281C112.812 323.386 112.88 325.899 112.963 327.633C113.014 328.444 113.055 329.104 113.088 329.63C113.124 330.085 113.155 330.324 113.176 330.323Z" fill="#17282F"/>
<path d="M113.219 313.783C113.264 313.782 113.256 313.04 113.204 311.697C113.124 310.357 112.933 308.419 112.542 306.045C112.127 303.678 111.548 300.866 110.637 297.811C110.242 296.413 109.313 293.067 107.066 288.067C104.105 281.291 100.082 275.751 96.5823 272.32C95.7617 271.41 94.8469 270.752 94.1162 270.109C93.7373 269.801 93.4025 269.492 93.0622 269.248C92.7193 269.02 92.4006 268.808 92.1052 268.613C90.9534 267.852 90.3079 267.452 90.2846 267.488C90.1813 267.623 92.8638 269.147 96.2528 272.624C99.6274 276.092 103.538 281.595 106.475 288.313C108.113 291.957 109.255 295.208 110.066 297.968C111.002 300.993 111.623 303.777 112.093 306.121C112.54 308.47 112.798 310.389 112.954 311.717C113.083 313.047 113.175 313.785 113.219 313.783Z" fill="#17282F"/>
<path d="M96.646 342.959L98.3634 365.664H128.604L130.322 342.959H96.646Z" fill="#17282F"/>
<path d="M93.7247 334.009V342.959H133.93V334.009H93.7247Z" fill="#17282F"/>
<path d="M93.7247 364.796V367.275H133.266V364.796H93.7247Z" fill="#33535F"/>
<path d="M97.4657 371.642L95.6136 367.275H131.826L129.666 371.642H97.4657Z" fill="#33535F"/>
<path d="M129.761 350.38C129.767 350.385 129.72 350.456 129.62 350.588C129.5 350.741 129.351 350.932 129.168 351.167C128.739 351.696 128.149 352.425 127.406 353.34L127.328 353.438L127.252 353.337C126.145 351.858 124.666 349.886 122.924 347.563H123.174C121.886 349.321 120.452 351.28 118.913 353.382L118.779 353.564L118.629 353.393C117.057 351.588 115.349 349.629 113.576 347.594L113.867 347.59C113.78 347.697 113.684 347.812 113.589 347.926C112.022 349.823 110.505 351.657 109.071 353.391L108.92 353.573L108.781 353.383C107.247 351.289 105.814 349.333 104.517 347.565L104.765 347.576C102.665 349.886 100.883 351.844 99.5152 353.346L99.4219 353.448L99.3509 353.334C98.6588 352.213 98.1067 351.317 97.7072 350.669C97.5357 350.38 97.3956 350.146 97.2852 349.96C97.1928 349.798 97.1479 349.713 97.1568 349.707C97.1649 349.702 97.2242 349.779 97.3328 349.933C97.4549 350.112 97.6093 350.337 97.7996 350.615C98.2189 351.252 98.7988 352.129 99.5251 353.23L99.3608 353.218C100.707 351.696 102.46 349.715 104.527 347.378L104.658 347.23L104.775 347.388C106.082 349.15 107.529 351.097 109.076 353.181L108.787 353.173C110.218 351.436 111.731 349.599 113.295 347.701C113.39 347.585 113.485 347.47 113.573 347.364L113.717 347.19L113.865 347.36C115.632 349.399 117.335 351.363 118.904 353.171L118.62 353.182C120.176 351.091 121.624 349.141 122.924 347.391L123.05 347.222L123.174 347.391C124.878 349.74 126.326 351.735 127.41 353.228L127.256 353.224C128.028 352.33 128.642 351.621 129.089 351.104C129.287 350.882 129.449 350.703 129.579 350.557C129.692 350.435 129.754 350.374 129.761 350.38Z" fill="#DADBD8"/>
<path d="M130.743 342.809C130.743 342.91 123.166 342.99 113.822 342.99C104.473 342.99 96.8974 342.91 96.8974 342.809C96.8974 342.709 104.473 342.628 113.822 342.628C123.166 342.628 130.743 342.709 130.743 342.809Z" fill="#33535F"/>
<path d="M132.27 367.521C132.27 367.621 124.036 367.702 113.88 367.702C103.72 367.702 95.487 367.621 95.487 367.521C95.487 367.42 103.72 367.339 113.88 367.339C124.036 367.339 132.27 367.42 132.27 367.521Z" fill="#17282F"/>
<path d="M586.186 371.693C586.186 371.816 454.953 371.917 293.106 371.917C131.205 371.917 0 371.816 0 371.693C0 371.567 131.205 371.467 293.106 371.467C454.953 371.467 586.186 371.567 586.186 371.693Z" fill="#17282F"/>
<path d="M323.631 145.04C319.689 144.663 316.353 142.027 313.875 139.048C311.395 136.068 309.511 132.651 306.911 129.767C304.974 127.619 304.669 123.255 301.807 122.553C298.227 121.675 296.475 116.736 296.706 113.897C296.958 110.807 299.554 107.699 299.472 106.774C299.258 104.347 296.373 102.612 296.329 100.176C296.224 94.4503 300.804 93.6666 300.804 93.6666C301.946 90.693 303.515 86.7417 307.459 84.1984C311.735 81.4422 318.351 78.2373 323.395 79.2046C328.44 80.171 332.089 80.7226 335.069 84.7665" fill="#17282F"/>
<path d="M366.331 143.073L362.396 162.697L353.54 180.37L341.734 172.484L337.839 161.844L334.573 152.919C334.573 152.919 321.682 155.424 317.04 143.719C314.798 138.068 311.164 126.068 308.005 115.17C304.608 103.449 311.11 91.1779 322.949 86.9695L324.125 86.5521C337.081 82.7585 347.658 91.2524 351.231 103.849L366.331 143.073Z" fill="#F8A58D"/>
<path d="M314.772 122.71C315.078 123.609 316.12 124.099 317.098 123.808C318.074 123.517 318.62 122.554 318.314 121.656C318.008 120.758 316.967 120.266 315.99 120.557C315.011 120.848 314.466 121.812 314.772 122.71Z" fill="#17282F"/>
<path d="M312.404 119.433C312.703 119.575 313.662 118.166 315.537 117.504C317.4 116.817 319.131 117.259 319.25 116.966C319.311 116.831 318.941 116.514 318.181 116.307C317.432 116.098 316.272 116.048 315.107 116.468C313.943 116.888 313.12 117.651 312.718 118.277C312.305 118.907 312.261 119.373 312.404 119.433Z" fill="#17282F"/>
<path d="M332.32 116.342C332.626 117.24 333.667 117.73 334.646 117.439C335.622 117.148 336.168 116.186 335.862 115.287C335.555 114.389 334.514 113.897 333.537 114.188C332.559 114.479 332.014 115.443 332.32 116.342Z" fill="#17282F"/>
<path d="M330.876 112.289C331.159 112.462 332.272 111.16 334.209 110.7C336.138 110.212 337.809 110.831 337.959 110.551C338.037 110.426 337.705 110.071 336.972 109.786C336.25 109.499 335.102 109.329 333.897 109.624C332.692 109.921 331.788 110.593 331.317 111.172C330.838 111.756 330.741 112.214 330.876 112.289Z" fill="#17282F"/>
<path d="M329.685 129.594C329.654 129.489 328.415 129.709 326.44 130.146C325.944 130.269 325.456 130.338 325.255 130.052C325.015 129.759 325.025 129.19 325.052 128.571C325.075 127.294 325.099 125.957 325.124 124.555C325.177 118.853 325.028 114.235 324.79 114.235C324.552 114.235 324.315 118.856 324.263 124.556C324.261 125.958 324.258 127.294 324.257 128.573C324.277 129.16 324.192 129.866 324.701 130.471C324.962 130.77 325.408 130.896 325.745 130.866C326.086 130.847 326.358 130.757 326.599 130.686C328.537 130.11 329.717 129.7 329.685 129.594Z" fill="#17282F"/>
<path d="M335.676 128.884C335.364 128.976 336.109 130.938 334.901 132.949C333.698 134.963 331.446 135.514 331.533 135.794C331.553 135.927 332.163 136.003 333.086 135.702C333.996 135.413 335.199 134.669 335.939 133.438C336.675 132.207 336.696 130.906 336.458 130.077C336.222 129.229 335.81 128.824 335.676 128.884Z" fill="#17282F"/>
<path d="M328.832 106.259C329.166 106.714 331.019 105.963 333.352 105.625C335.678 105.242 337.681 105.394 337.852 104.862C337.924 104.609 337.47 104.22 336.593 103.927C335.724 103.634 334.428 103.479 333.03 103.694C331.634 103.912 330.452 104.45 329.723 104.991C328.986 105.534 328.682 106.042 328.832 106.259Z" fill="#17282F"/>
<path d="M311.513 114.511C311.999 114.805 313.127 113.92 314.671 113.349C316.194 112.725 317.642 112.606 317.78 112.069C317.834 111.814 317.469 111.475 316.747 111.292C316.034 111.106 314.965 111.126 313.911 111.535C312.858 111.947 312.076 112.647 311.697 113.259C311.309 113.876 311.291 114.363 311.513 114.511Z" fill="#17282F"/>
<path d="M333.85 84.2261C334.809 86.8438 334.498 89.8651 333.024 92.249C331.549 94.6329 328.939 96.3328 326.097 96.7614C323.89 97.0939 321.251 96.848 319.842 98.5184C318.36 100.275 319.276 103.046 318.108 105.012C316.441 107.821 311.956 107.223 309.233 109.115C307.131 110.577 306.448 113.232 305.548 115.577C304.649 117.921 302.94 120.437 300.352 120.556C299.765 118.471 299.174 116.364 299.097 114.206C299.02 112.047 299.502 109.8 300.871 108.09C301.62 107.153 302.613 106.402 303.261 105.396C304.659 103.224 304.155 100.433 304.591 97.9114C305.153 94.6598 307.453 91.7364 310.548 90.3388C313.123 89.1758 316.154 89.0217 318.528 87.5123C320.282 86.3961 321.526 84.6262 323.346 83.6122C326.89 81.6378 331.37 83.077 335.069 84.7665" fill="#17282F"/>
<path d="M323.588 93.5289C325.12 92.4863 328.217 90.2505 328.615 88.5195C329.477 84.7596 332.207 81.4716 335.846 80.4576C339.486 79.4427 343.897 81.0084 345.944 84.3994C350.276 82.9749 355.439 84.1725 358.939 87.4137C362.437 90.654 364.131 95.8055 363.2 100.379C362.956 101.577 362.55 102.829 362.959 104.01C363.466 105.475 365.001 106.252 366.226 107.192C369.566 109.753 371.038 114.32 370.671 118.458C370.303 122.597 369.588 124.248 367.481 125.762C363.358 128.723 372.215 135.753 364.511 138.347L352.321 112.655C352.164 112.823 351.962 112.99 351.691 113.154C347.492 115.685 343.78 107.297 343.909 104.498C341.747 103.64 339.561 102.769 337.652 101.398C335.744 100.027 332.864 95.5067 332.334 93.2129C330.724 93.8588 322.916 93.987 323.588 93.5289Z" fill="#17282F"/>
<path d="M351.742 113.044C351.918 112.883 359.205 107.677 362.01 115.81C364.815 123.943 355.771 124.982 355.676 124.753C355.581 124.525 351.742 113.044 351.742 113.044Z" fill="#F8A58D"/>
<path d="M357.189 120.846C357.217 120.808 357.37 120.898 357.656 120.928C357.935 120.957 358.377 120.897 358.762 120.597C359.544 119.996 359.823 118.392 359.359 116.913C359.125 116.165 358.721 115.512 358.248 115.016C357.785 114.503 357.243 114.216 356.768 114.283C356.288 114.326 356.059 114.687 356.035 114.95C356 115.213 356.109 115.358 356.071 115.387C356.053 115.415 355.843 115.308 355.794 114.95C355.772 114.777 355.807 114.555 355.95 114.335C356.097 114.11 356.368 113.935 356.691 113.867C357.356 113.702 358.14 114.091 358.66 114.635C359.216 115.171 359.689 115.9 359.951 116.739C360.462 118.395 360.121 120.208 359.02 120.938C358.478 121.279 357.923 121.265 357.602 121.155C357.271 121.037 357.164 120.87 357.189 120.846Z" fill="#F68260"/>
<path d="M334.556 152.917C334.556 152.917 342.491 150.783 348.784 142.912C348.784 142.912 348.259 152.709 335.691 155.973L334.556 152.917Z" fill="#F68260"/>
<path d="M332.429 93.2891C332.429 93.2891 338.48 94.6728 345.976 94.1836C353.474 93.6935 354.507 89.6868 356.931 85.8853C356.931 85.8853 361.798 88.2788 362.987 94.265C362.987 94.265 358.749 105.893 343.909 104.498C343.909 104.498 333.091 101.606 332.429 93.2891Z" fill="#DADBD8"/>
<path d="M362.656 103.542C362.879 103.732 362.323 104.841 360.769 106.096C359.244 107.343 356.614 108.635 353.455 108.815C350.295 108.995 347.526 108.009 345.86 106.944C344.163 105.874 343.475 104.835 343.674 104.62C343.894 104.366 344.924 104.923 346.607 105.521C348.278 106.127 350.676 106.713 353.317 106.565C355.958 106.413 358.268 105.559 359.854 104.769C361.452 103.984 362.407 103.314 362.656 103.542Z" fill="#DADBD8"/>
<path d="M342.441 109.575C342.559 109.604 342.233 110.631 341.193 111.413C340.16 112.205 339.048 112.268 339.047 112.15C339.017 112.021 339.979 111.773 340.904 111.058C341.841 110.36 342.316 109.517 342.441 109.575Z" fill="#F68260"/>
<path d="M344.012 111.825C344.042 111.946 343.156 112.253 342.034 112.512C340.912 112.77 339.978 112.881 339.948 112.76C339.917 112.638 340.803 112.331 341.926 112.073C343.048 111.815 343.982 111.704 344.012 111.825Z" fill="#F68260"/>
<path d="M326.508 108.413C326.526 108.477 326.224 108.606 325.771 108.857C325.311 109.103 324.711 109.496 323.999 109.903C323.288 110.31 322.559 110.586 322.002 110.654C321.444 110.731 321.101 110.636 321.107 110.581C321.11 110.513 321.439 110.49 321.931 110.343C322.426 110.202 323.071 109.908 323.764 109.513C324.458 109.117 325.112 108.749 325.63 108.568C326.146 108.38 326.493 108.356 326.508 108.413Z" fill="#F68260"/>
<path d="M329.21 103.571C329.232 103.642 328.656 103.809 327.878 104.324C327.088 104.824 326.159 105.719 325.146 106.748C324.129 107.781 323.053 108.628 322.135 109.008C321.22 109.403 320.582 109.377 320.583 109.329C320.569 109.254 321.165 109.166 321.987 108.723C322.816 108.293 323.802 107.458 324.81 106.435C325.819 105.409 326.827 104.507 327.704 104.053C328.573 103.582 329.202 103.522 329.21 103.571Z" fill="#F68260"/>
<path d="M314.382 122.733C314.441 122.838 313.815 123.236 312.919 123.271C312.024 123.313 311.364 122.97 311.413 122.861C311.457 122.738 312.108 122.861 312.899 122.821C313.69 122.793 314.326 122.616 314.382 122.733Z" fill="#F68260"/>
<path d="M313.804 123.701C313.855 123.82 313.444 124.088 313.099 124.538C312.744 124.981 312.587 125.435 312.454 125.42C312.329 125.419 312.288 124.821 312.726 124.266C313.162 123.709 313.769 123.585 313.804 123.701Z" fill="#F68260"/>
<path d="M338.424 128.962C338.303 129.014 337.947 128.436 337.201 128.14C336.466 127.818 335.785 127.963 335.741 127.842C335.721 127.789 335.875 127.666 336.183 127.597C336.486 127.527 336.941 127.541 337.387 127.726C337.83 127.912 338.153 128.223 338.308 128.484C338.467 128.746 338.479 128.94 338.424 128.962Z" fill="#F68260"/>
<path d="M340.153 129.151C340.024 129.193 339.715 128.553 339.066 128.004C338.428 127.441 337.736 127.214 337.766 127.087C337.773 126.967 338.63 127.016 339.379 127.668C340.132 128.314 340.276 129.132 340.153 129.151Z" fill="#F68260"/>
<path d="M339.578 116.042C339.694 116.075 339.28 117.247 338.106 118.196C336.94 119.156 335.674 119.354 335.658 119.239C335.617 119.11 336.732 118.739 337.804 117.851C338.889 116.979 339.455 115.983 339.578 116.042Z" fill="#F68260"/>
<path d="M323.668 325.156L324.882 354.962C324.882 354.962 293.882 366.163 293.55 371.693L353.549 371.496L353.632 324.98L323.668 325.156Z" fill="#33535F"/>
<path d="M343.427 352.394C344.588 352.696 345.395 353.952 345.13 355.085C344.864 356.218 343.546 357.02 342.379 356.737C341.212 356.455 340.195 354.975 340.59 353.879C340.986 352.781 342.586 351.921 343.65 352.466" fill="#DADBD8"/>
<path d="M293.58 371.467C293.56 371.467 293.546 371.467 293.526 371.467C293.481 370.265 294.718 369.393 295.427 368.993C294.392 369.885 293.73 370.723 293.58 371.467Z" fill="white"/>
<path d="M293.55 371.693C293.537 371.616 293.529 371.541 293.526 371.467C293.546 371.467 293.56 371.467 293.58 371.467C293.565 371.543 293.554 371.618 293.55 371.693L353.549 371.496L293.55 371.693Z" fill="#9BA6A6"/>
<path d="M293.55 371.693C293.554 371.618 293.565 371.543 293.58 371.467C293.73 370.723 294.392 369.885 295.427 368.993C295.711 368.833 295.909 368.748 295.909 368.748L353.367 366.807L353.549 371.496L293.55 371.693Z" fill="#A6B7B9"/>
<path d="M323.909 354.671C323.92 354.954 325.386 355.076 326.829 355.98C328.299 356.848 329.047 358.07 329.316 357.957C329.586 357.901 329.143 356.213 327.374 355.148C325.615 354.068 323.844 354.412 323.909 354.671Z" fill="#17282F"/>
<path d="M317.625 357.201C317.559 357.476 318.829 357.953 319.829 359.144C320.865 360.307 321.119 361.6 321.411 361.586C321.687 361.63 321.883 359.975 320.611 358.515C319.354 357.046 317.63 356.933 317.625 357.201Z" fill="#17282F"/>
<path d="M314.076 364.479C314.342 364.538 314.745 363.124 313.988 361.58C313.241 360.029 311.857 359.422 311.734 359.658C311.569 359.892 312.462 360.719 313.064 361.997C313.697 363.261 313.785 364.452 314.076 364.479Z" fill="#17282F"/>
<path d="M324.414 347.849C324.537 348.106 325.88 347.711 327.536 347.816C329.195 347.886 330.486 348.417 330.637 348.175C330.806 347.969 329.545 346.927 327.591 346.833C325.641 346.723 324.269 347.628 324.414 347.849Z" fill="#17282F"/>
<path d="M485.825 364.132L516.409 359.718C516.409 359.718 531.333 388.22 537.068 387.934L530.321 330.428L482.376 335.422L485.825 364.132Z" fill="#33535F"/>
<path d="M511.74 342.218C511.925 341.071 513.132 340.16 514.328 340.29C515.524 340.422 516.495 341.597 516.33 342.748C516.168 343.898 514.752 345.034 513.579 344.775C512.405 344.515 511.344 343.074 511.79 341.995" fill="#DADBD8"/>
<path d="M536.571 388C535.456 388 534.534 387.019 534.08 386.428C535.18 387.382 536.168 387.936 536.981 387.936C537.01 387.936 537.039 387.935 537.068 387.934C536.898 387.979 536.733 388 536.571 388Z" fill="white"/>
<path d="M536.981 387.936C536.168 387.936 535.18 387.382 534.08 386.428C533.885 386.174 533.777 385.993 533.777 385.993L525.509 331.113L530.321 330.428L537.068 387.934C537.039 387.935 537.011 387.936 536.981 387.936Z" fill="#A6B7B9"/>
<path d="M516.215 360.682C516.506 360.642 516.472 359.222 517.247 357.74C517.98 356.236 519.158 355.386 519.012 355.14C518.925 354.887 517.234 355.496 516.329 357.308C515.409 359.112 515.955 360.772 516.215 360.682Z" fill="#17282F"/>
<path d="M519.509 366.432C519.798 366.465 520.151 365.195 521.27 364.107C522.357 362.987 523.659 362.601 523.614 362.323C523.63 362.054 521.901 362.045 520.537 363.424C519.159 364.79 519.232 366.455 519.509 366.432Z" fill="#17282F"/>
<path d="M527.395 369.04C527.427 368.779 525.927 368.547 524.417 369.441C522.901 370.327 522.427 371.719 522.682 371.812C522.941 371.944 523.696 370.998 524.948 370.281C526.181 369.537 527.399 369.323 527.395 369.04Z" fill="#17282F"/>
<path d="M509.13 360.943C509.382 360.796 508.828 359.551 508.754 357.953C508.646 356.354 509.054 355.059 508.786 354.94C508.556 354.8 507.62 356.123 507.736 358.007C507.836 359.889 508.916 361.106 509.13 360.943Z" fill="#17282F"/>
<path d="M292.171 203.512L335.228 213.503L322.043 239.226L283.659 218.245L292.171 203.512Z" fill="#F8A58D"/>
<path d="M277.632 197.182L270.27 195.818L260.171 200.41L255.886 209.589C255.323 210.795 255.58 212.208 256.53 213.164C258.357 215.003 261.335 217.779 262.876 218.011C262.876 218.011 263.098 221.238 266.242 221.392C266.242 221.392 265.317 222.876 268.986 223.443C272.655 224.01 284.104 221.953 284.104 221.953C284.104 221.953 284.778 220.021 281.641 217.662L285.386 214.75C285.386 214.75 285.158 212.445 281.66 211.865L285.414 205.928L277.632 197.182Z" fill="#1D3F70"/>
<path d="M281.014 218.382L293.628 225.774L303.919 205.742L288.095 200.171L278.57 217.965L281.014 218.382Z" fill="#1D3F70"/>
<path d="M261.376 201.701L260.547 203.853L234.246 194.299L230.988 193.488L229.515 192.278L230.574 190.341L232.317 190.542L235.158 192.292L261.376 201.701Z" fill="#DADBD8"/>
<path d="M281.641 217.662C281.664 217.715 280.843 218.107 279.465 218.624C278.088 219.142 276.146 219.769 273.955 220.298C271.764 220.823 269.745 221.151 268.277 221.319C266.809 221.487 265.894 221.513 265.887 221.456C265.88 221.39 266.781 221.25 268.228 221.003C269.676 220.756 271.668 220.382 273.842 219.859C276.016 219.336 277.956 218.761 279.354 218.323C280.752 217.886 281.615 217.6 281.641 217.662Z" fill="#17282F"/>
<path d="M263.688 217.622C268.863 217.002 273.961 215.816 278.901 214.169C279.535 213.959 280.174 213.736 280.726 213.36C281.279 212.985 281.744 212.433 281.881 211.772" fill="#1D3F70"/>
<path d="M281.881 211.772C281.904 211.773 281.915 212.061 281.68 212.511C281.451 212.956 280.909 213.52 280.075 213.9C278.406 214.601 276.067 215.328 273.424 216.017C270.783 216.699 268.345 217.134 266.574 217.379C264.801 217.618 263.695 217.679 263.688 217.622C263.68 217.556 264.77 217.383 266.52 217.063C268.27 216.739 270.68 216.259 273.305 215.583C275.918 214.9 278.299 214.211 279.935 213.612C280.74 213.286 281.26 212.812 281.523 212.422C281.788 212.031 281.841 211.763 281.881 211.772Z" fill="#17282F"/>
<path d="M283.181 214.32L259.916 205.971L262.334 199.7L285.599 208.049C287.395 208.693 288.309 210.619 287.641 212.351C286.973 214.082 284.976 214.964 283.181 214.32Z" fill="#EB5648"/>
<path d="M260.948 210.37C266.773 209.226 272.706 208.597 278.648 208.495C279.355 208.483 280.107 208.489 280.705 208.853C281.345 209.243 281.683 209.983 281.753 210.711L281.755 210.732C281.871 212.016 280.926 213.14 279.73 213.713L279.676 213.734" fill="#1D3F70"/>
<path d="M279.676 213.734C279.644 213.716 279.992 213.552 280.479 213.141C280.94 212.739 281.638 211.976 281.595 210.879C281.568 210.346 281.379 209.735 280.943 209.288C280.513 208.827 279.798 208.69 279.037 208.699C277.481 208.729 275.754 208.795 273.954 208.912C270.347 209.142 267.098 209.53 264.754 209.861C263.658 210.02 262.731 210.154 261.976 210.263C261.321 210.361 260.954 210.4 260.948 210.37C260.942 210.339 261.295 210.242 261.942 210.091C262.589 209.945 263.53 209.749 264.701 209.547C267.038 209.134 270.299 208.692 273.923 208.463C275.736 208.344 277.458 208.291 279.04 208.284C279.824 208.28 280.708 208.449 281.227 209.033C281.738 209.589 281.914 210.271 281.927 210.869C281.936 211.483 281.714 212.013 281.446 212.405C281.175 212.801 280.866 213.081 280.595 213.277C280.049 213.663 279.671 213.772 279.676 213.734Z" fill="#17282F"/>
<path d="M292.794 204.041C292.794 204.041 285.385 197.693 282.453 196.126C279.52 194.559 276.864 194.472 275.221 194.866C273.579 195.26 261.369 203.772 261.369 203.772C261.369 203.772 262.565 206.529 266.612 206.13C270.66 205.733 272.876 203.391 272.876 203.391C272.876 203.391 273.647 207.256 278.648 208.495C284.421 209.925 292.794 204.041 292.794 204.041Z" fill="#1D3F70"/>
<path d="M272.785 196.283C272.799 196.304 272.508 196.526 271.958 196.919C271.346 197.345 270.549 197.9 269.575 198.577C267.456 200.01 264.576 201.958 261.241 204.214L261.287 203.903C261.91 204.621 262.724 205.242 263.701 205.59C264.674 205.944 265.78 206.02 266.875 205.87C269.148 205.543 271.167 204.455 272.735 203.228L272.985 203.032L273.086 203.324C273.714 205.145 274.998 206.563 276.38 207.425C277.772 208.299 279.255 208.613 280.465 208.658C281.686 208.701 282.647 208.485 283.285 208.304C283.923 208.115 284.254 207.963 284.268 207.992C284.273 208.003 284.196 208.05 284.042 208.131C283.887 208.215 283.649 208.322 283.332 208.438C282.699 208.665 281.721 208.929 280.459 208.922C279.209 208.913 277.653 208.623 276.179 207.729C274.716 206.851 273.347 205.38 272.666 203.459L273.017 203.556C271.406 204.835 269.337 205.968 266.94 206.316C265.785 206.475 264.595 206.394 263.539 206.007C262.479 205.626 261.599 204.944 260.943 204.172L260.789 203.992L260.989 203.861C264.363 201.658 267.275 199.758 269.419 198.358C270.422 197.723 271.243 197.201 271.874 196.801C272.451 196.445 272.77 196.263 272.785 196.283Z" fill="#17282F"/>
<path d="M283.611 222.219C284.358 221.551 284.19 220.301 283.528 219.553C282.867 218.806 281.869 218.435 280.914 218.094C281.546 217.908 282.123 217.554 282.568 217.083C282.877 216.756 283.129 216.353 283.165 215.911C283.224 215.188 282.683 214.518 282.019 214.177C281.355 213.837 280.789 213.96 280.04 213.886" fill="#1D3F70"/>
<path d="M280.04 213.887C280.044 213.854 280.235 213.848 280.581 213.827C280.915 213.819 281.466 213.744 282.085 214.032C282.654 214.304 283.363 214.891 283.383 215.835C283.383 216.298 283.157 216.739 282.859 217.096C282.557 217.454 282.178 217.764 281.737 218C281.491 218.132 281.234 218.234 280.982 218.308L280.996 217.884C281.797 218.172 282.582 218.484 283.183 218.961C283.796 219.418 284.148 220.075 284.216 220.628C284.302 221.186 284.154 221.649 283.97 221.901C283.788 222.159 283.624 222.236 283.611 222.219C283.541 222.191 284.142 221.691 283.909 220.681C283.803 220.194 283.49 219.67 282.925 219.274C282.375 218.866 281.636 218.584 280.833 218.303L280.189 218.078L280.847 217.88C281.067 217.813 281.294 217.721 281.51 217.605C282.269 217.192 282.925 216.508 282.952 215.828C282.972 215.135 282.416 214.58 281.932 214.314C281.432 214.035 280.921 214.046 280.576 214.002C280.227 213.969 280.037 213.917 280.04 213.887Z" fill="#17282F"/>
<path d="M297.586 203.512L287.562 222.219L291.244 224.377L300.677 204.601L297.586 203.512Z" fill="#DADBD8"/>
<path d="M343.068 153.18C343.068 153.18 347.1 141.088 354.642 140.083C362.183 139.079 371.154 139.429 377.281 141.59C388.316 145.482 434.493 192.568 434.493 192.568C434.493 192.568 448.511 210.866 443.869 218.031L405.009 232.224H372.174C372.174 232.224 348.389 202.096 348.909 201.343C349.43 200.59 343.068 153.18 343.068 153.18Z" fill="#3A72AA"/>
<path d="M391.615 276.326C391.615 276.326 392.754 351.785 395.413 358.012C398.072 364.239 401.488 369.001 412.882 371.198C424.275 373.397 509.722 367.536 509.722 367.536L505.545 330.538L444.658 325.157C444.658 325.157 444.403 308.561 444.782 300.868C445.162 293.176 454.073 278.769 455.204 261.569C456.336 244.369 391.615 276.326 391.615 276.326Z" fill="#1D3F70"/>
<path d="M446.15 324.515C446.182 324.585 445.052 325.067 443.322 326.007C441.591 326.944 439.285 328.391 437.002 330.309C434.725 332.232 432.926 334.241 431.73 335.768C430.531 337.295 429.883 338.31 429.815 338.271C429.788 338.255 429.924 337.987 430.195 337.514C430.461 337.038 430.891 336.375 431.462 335.58C432.601 333.991 434.385 331.918 436.694 329.969C439.008 328.026 441.377 326.6 443.165 325.727C444.057 325.288 444.798 324.966 445.322 324.775C445.844 324.581 446.138 324.486 446.15 324.515Z" fill="#17282F"/>
<path d="M435.482 346.394C435.449 346.387 435.498 346.06 435.613 345.474C435.722 344.886 435.923 344.043 436.206 343.011C436.77 340.946 437.733 338.133 439.135 335.161C440.541 332.19 442.112 329.643 443.358 327.878C443.979 326.995 444.507 326.296 444.895 325.831C445.28 325.362 445.504 325.113 445.53 325.131C445.59 325.175 444.801 326.25 443.635 328.051C442.466 329.851 440.955 332.402 439.56 335.348C438.17 338.294 437.167 341.068 436.524 343.099C435.88 345.13 435.555 346.411 435.482 346.394Z" fill="#17282F"/>
<path d="M413.061 299.65C405.485 299.65 398.032 297.128 391.995 292.676C399.205 293.501 405.97 294.086 410.674 294.086C412.13 294.086 413.388 294.03 414.401 293.908C416.171 293.694 418.11 293.232 420.147 292.579C426.415 292.105 432.578 291.178 438.389 289.589C432.464 295.114 423.166 299.144 414.939 299.598C414.313 299.633 413.687 299.65 413.061 299.65Z" fill="#0F2E54"/>
<path d="M483.532 328.592L485.794 369.055L499.039 368.238L496.524 329.741L483.532 328.592Z" fill="#DADBD8"/>
<path d="M358.053 207.981L406.034 230.196L444.812 212.929C444.812 212.929 452.065 221.2 453.492 224.638C454.919 228.075 455.378 239.81 455.378 239.81L405.484 246.064H362.439L354.642 233.309L358.053 207.981Z" fill="#1D3F70"/>
<path d="M454.851 232.224C450.294 227.095 388.577 237.862 388.577 237.862C388.577 237.862 327.434 240.427 318.32 241.892C309.206 243.358 300.677 258.64 300.677 267.797C300.677 276.955 308.843 346.395 308.843 346.395L360.52 341.324C360.141 334.73 354.778 287.314 354.778 287.314C354.778 287.314 402.248 295.373 414.401 293.908C426.554 292.442 446.681 279.256 451.238 273.028C455.796 266.801 459.407 237.352 454.851 232.224Z" fill="#1D3F70"/>
<path d="M358.26 239.226C358.26 239.226 433.354 229.855 456.86 246.993C456.86 246.993 461.251 237.223 454.851 232.224C448.45 227.225 355.62 234.908 355.62 234.908L358.26 239.226Z" fill="#EB5648"/>
<path d="M336.029 270.395C336.036 270.364 336.419 270.429 337.107 270.575C337.452 270.642 337.871 270.739 338.346 270.893C338.823 271.041 339.376 271.183 339.955 271.425C341.139 271.848 342.495 272.485 343.931 273.31C345.35 274.16 346.837 275.211 348.253 276.477C349.653 277.759 350.835 279.124 351.805 280.437C352.749 281.766 353.495 283.031 354.008 284.143C354.294 284.686 354.476 285.211 354.66 285.658C354.85 286.106 354.976 286.504 355.068 286.833C355.262 287.486 355.354 287.849 355.323 287.857C355.232 287.886 354.816 286.436 353.71 284.282C353.166 283.201 352.402 281.972 351.454 280.677C350.48 279.399 349.309 278.067 347.932 276.806C346.541 275.562 345.088 274.518 343.704 273.664C342.305 272.833 340.985 272.175 339.832 271.72C337.533 270.791 336.006 270.485 336.029 270.395Z" fill="#17282F"/>
<path d="M337.011 278.092C337.017 278.062 337.297 278.096 337.8 278.184C338.303 278.268 339.023 278.431 339.904 278.667C341.664 279.135 344.054 279.968 346.532 281.214C349.007 282.467 351.079 283.885 352.482 285.013C353.186 285.575 353.735 286.053 354.093 286.404C354.456 286.752 354.644 286.954 354.622 286.977C354.571 287.031 353.724 286.316 352.278 285.263C350.834 284.209 348.76 282.85 346.315 281.614C343.868 280.383 341.528 279.515 339.807 278.972C338.086 278.427 336.994 278.163 337.011 278.092Z" fill="#17282F"/>
<path d="M439.427 289.676C439.429 289.684 439.357 289.705 439.216 289.739C439.047 289.776 438.84 289.822 438.586 289.878C437.992 289.999 437.18 290.164 436.154 290.373C435.097 290.592 433.802 290.841 432.286 291.062C430.771 291.291 429.051 291.601 427.132 291.804C426.172 291.919 425.168 292.039 424.123 292.165C423.077 292.286 421.982 292.358 420.853 292.462C418.592 292.687 416.168 292.789 413.618 292.927C408.515 293.116 402.897 293.122 397.01 292.857C385.23 292.289 374.652 290.822 367.044 289.586C363.239 288.964 360.168 288.413 358.054 287.997C357.027 287.792 356.214 287.631 355.621 287.513C355.366 287.457 355.158 287.413 354.989 287.376C354.848 287.343 354.776 287.322 354.778 287.314C354.78 287.307 354.854 287.312 354.999 287.331C355.17 287.356 355.38 287.386 355.638 287.423C356.236 287.522 357.054 287.654 358.088 287.823C360.211 288.187 363.289 288.689 367.097 289.271C374.712 290.425 385.28 291.84 397.032 292.406C402.906 292.672 408.511 292.678 413.602 292.512C416.145 292.385 418.564 292.298 420.82 292.089C421.948 291.994 423.041 291.93 424.086 291.819C425.13 291.704 426.132 291.594 427.09 291.488C429.01 291.305 430.728 291.018 432.243 290.813C433.762 290.616 435.061 290.392 436.12 290.2C437.153 290.027 437.97 289.889 438.567 289.79C438.825 289.751 439.035 289.72 439.206 289.693C439.351 289.675 439.425 289.669 439.427 289.676Z" fill="#17282F"/>
<path d="M378.638 277.278C378.643 277.294 378.436 277.367 378.037 277.494C377.587 277.63 377.007 277.806 376.289 278.024C374.706 278.478 372.52 279.108 369.851 279.875L369.68 279.924L369.633 279.755C368.412 275.429 367.242 269.574 366.009 263.17C365.066 258.304 364.133 253.771 363.145 250.013L363.084 249.78L363.331 249.773C367.199 249.669 370.405 250.048 372.609 250.431C373.714 250.623 374.571 250.813 375.152 250.956C375.733 251.102 376.038 251.193 376.034 251.212C376.028 251.231 375.713 251.18 375.126 251.07C374.538 250.966 373.676 250.81 372.572 250.651C370.366 250.335 367.179 250.015 363.345 250.157L363.531 249.917C364.565 253.679 365.526 258.22 366.468 263.087C367.703 269.493 368.827 275.343 369.973 279.669L369.755 279.549C372.441 278.841 374.641 278.261 376.235 277.841C376.964 277.66 377.552 277.513 378.01 277.399C378.417 277.304 378.634 277.261 378.638 277.278Z" fill="#17282F"/>
<path d="M380.013 276.649C379.981 276.648 379.953 276.293 379.931 275.653C379.9 274.916 379.864 274.01 379.82 272.94C379.709 270.652 379.452 267.497 378.91 264.044C378.363 260.591 377.631 257.505 377.03 255.289C376.742 254.255 376.497 253.38 376.299 252.668C376.122 252.05 376.039 251.702 376.07 251.693C376.1 251.683 376.241 252.012 376.472 252.615C376.706 253.217 377.008 254.101 377.349 255.203C378.033 257.406 378.82 260.502 379.372 263.975C379.918 267.45 380.123 270.63 380.151 272.93C380.164 274.08 380.15 275.01 380.113 275.653C380.08 276.296 380.046 276.65 380.013 276.649Z" fill="#17282F"/>
<path d="M367.498 284.3C366.392 274.613 365.481 264.926 364.391 255.24C364.935 257.72 365.47 260.39 366.009 263.17C367.242 269.574 368.412 275.429 369.633 279.755L369.68 279.924L369.851 279.875C372.52 279.108 374.706 278.478 376.289 278.024C376.927 277.83 377.457 277.669 377.883 277.541C374.943 280.441 371.387 282.757 367.498 284.3Z" fill="#0F2E54"/>
<path d="M369.68 279.924L369.633 279.755C368.412 275.429 367.242 269.574 366.009 263.17C365.47 260.39 364.935 257.72 364.391 255.24C364.344 254.823 364.297 254.405 364.249 253.988L364.359 254.076C366.441 262.89 367.851 271.021 369.935 279.836C372.633 279.023 375.331 278.21 378.029 277.396C377.981 277.444 377.932 277.493 377.883 277.541C377.457 277.669 376.927 277.83 376.289 278.024C374.706 278.478 372.52 279.108 369.851 279.875L369.68 279.924Z" fill="#0F191D"/>
<path d="M346.068 292.242C346.085 292.24 346.131 292.448 346.203 292.847C346.277 293.297 346.374 293.876 346.493 294.592C346.73 296.169 347.059 298.347 347.461 301.005L347.486 301.174L347.306 301.196C342.692 301.736 336.516 302.004 329.768 302.254C324.641 302.45 319.855 302.684 315.859 303.083L315.609 303.108L315.638 302.871C316.091 299.164 316.944 296.16 317.655 294.111C318.012 293.086 318.332 292.293 318.562 291.76C318.795 291.226 318.933 290.949 318.952 290.956C318.972 290.964 318.872 291.257 318.676 291.801C318.483 292.347 318.199 293.148 317.877 294.178C317.233 296.238 316.443 299.234 316.035 302.913L315.815 302.701C319.823 302.257 324.62 301.999 329.75 301.804C336.501 301.554 342.664 301.327 347.267 300.859L347.112 301.05C346.775 298.383 346.498 296.199 346.299 294.617C346.218 293.895 346.153 293.313 346.102 292.861C346.062 292.457 346.05 292.244 346.068 292.242Z" fill="#17282F"/>
<path d="M345.623 290.839C345.617 290.87 345.249 290.845 344.588 290.774C343.828 290.696 342.893 290.6 341.789 290.487C339.426 290.262 336.152 290.05 332.533 290.067C328.911 290.09 325.639 290.342 323.279 290.595C322.177 290.72 321.243 290.827 320.485 290.914C319.825 290.992 319.456 291.022 319.451 290.992C319.445 290.96 319.803 290.873 320.455 290.74C321.107 290.605 322.058 290.445 323.237 290.278C325.596 289.944 328.885 289.64 332.529 289.617C336.171 289.598 339.464 289.863 341.827 290.17C343.009 290.322 343.961 290.471 344.615 290.6C345.269 290.725 345.628 290.808 345.623 290.839Z" fill="#17282F"/>
<path d="M323.007 305.25C321.739 305.25 320.542 305.234 319.451 305.197L316.099 303.059C320.047 302.675 324.744 302.446 329.768 302.254C336.516 302.004 342.692 301.736 347.306 301.196L347.486 301.174L347.461 301.005C347.059 298.347 346.73 296.169 346.493 294.592C346.413 294.11 346.343 293.69 346.283 293.33L350.232 303.996C350.232 303.996 333.964 305.25 323.007 305.25Z" fill="#0F2E54"/>
<path d="M316.099 303.059L315.836 302.892C325.18 302.179 338.089 301.632 347.432 300.919C346.989 298.226 346.545 295.534 346.102 292.841L346.283 293.33C346.343 293.69 346.413 294.11 346.493 294.592C346.73 296.169 347.059 298.347 347.461 301.005L347.486 301.174L347.306 301.196C342.692 301.736 336.516 302.004 329.768 302.254C324.744 302.446 320.047 302.675 316.099 303.059Z" fill="#0F191D"/>
<path d="M420.018 207.057C420.042 207.077 419.792 207.4 419.317 207.969C418.844 208.539 418.135 209.343 417.239 210.319C415.448 212.274 412.871 214.892 409.837 217.595C406.799 220.295 403.885 222.562 401.722 224.127C400.639 224.909 399.751 225.525 399.125 225.934C398.499 226.344 398.145 226.559 398.125 226.534C398.107 226.509 398.424 226.246 399.016 225.793C399.68 225.285 400.519 224.64 401.519 223.875C403.625 222.249 406.494 219.953 409.521 217.263C412.542 214.572 415.146 211.999 416.996 210.105C417.868 209.205 418.6 208.451 419.179 207.853C419.697 207.321 419.994 207.037 420.018 207.057Z" fill="#17282F"/>
<path d="M398.5 206.419C398.562 206.431 398.415 207.454 398.086 209.091C397.756 210.727 397.231 212.977 396.525 215.43C395.816 217.883 395.061 220.071 394.466 221.636C393.871 223.202 393.448 224.15 393.391 224.13C393.327 224.108 393.639 223.122 394.153 221.535C394.666 219.946 395.369 217.752 396.074 215.309C396.778 212.866 397.352 210.638 397.764 209.022C398.174 207.406 398.434 206.407 398.5 206.419Z" fill="#17282F"/>
<path d="M418.372 235.84L416.878 274.555C416.626 281.09 421.903 286.589 428.677 286.849L446.669 287.542C453.28 287.796 458.916 282.965 459.422 276.603C460.407 264.2 461.293 244.918 458.329 235.84H418.372Z" fill="#EB5648"/>
<path d="M458.71 239.171C458.713 239.201 458.172 239.289 457.188 239.422C456.207 239.56 454.779 239.713 453.01 239.86C449.474 240.158 444.563 240.355 439.146 240.141C433.727 239.921 428.85 239.331 425.351 238.751C423.602 238.462 422.192 238.197 421.225 237.981C420.258 237.77 419.725 237.639 419.732 237.609C419.738 237.578 420.283 237.651 421.26 237.809C422.236 237.971 423.652 238.189 425.403 238.436C428.905 238.934 433.768 239.47 439.165 239.69C444.561 239.903 449.453 239.758 452.987 239.541C454.753 239.435 456.182 239.331 457.169 239.248C458.157 239.169 458.705 239.14 458.71 239.171Z" fill="#17282F"/>
<path d="M458.888 254.481C458.899 254.511 458.415 254.709 457.528 255.044C457.086 255.216 456.54 255.414 455.894 255.608C455.248 255.806 454.521 256.056 453.694 256.257C452.055 256.712 450.067 257.131 447.839 257.475C445.607 257.792 443.132 258.017 440.528 258.055C437.921 258.073 435.441 257.901 433.202 257.631C430.966 257.335 428.97 256.958 427.321 256.537C426.489 256.354 425.756 256.121 425.107 255.936C424.456 255.756 423.906 255.569 423.46 255.407C422.566 255.092 422.077 254.904 422.088 254.874C422.098 254.844 422.608 254.977 423.516 255.24C423.969 255.377 424.525 255.538 425.18 255.694C425.833 255.854 426.568 256.066 427.399 256.228C429.047 256.606 431.035 256.948 433.256 257.219C435.48 257.464 437.939 257.621 440.523 257.604C443.105 257.567 445.559 257.356 447.776 257.064C449.99 256.746 451.97 256.361 453.609 255.949C454.437 255.769 455.166 255.541 455.815 255.367C456.466 255.197 457.018 255.024 457.467 254.878C458.371 254.596 458.876 254.453 458.888 254.481Z" fill="#17282F"/>
<path d="M391.46 227.165C391.476 227.193 391.121 227.411 390.466 227.782C389.813 228.16 388.839 228.655 387.612 229.22C385.161 230.353 381.634 231.671 377.582 232.58C373.527 233.482 369.759 233.795 367.04 233.816C365.681 233.83 364.579 233.798 363.822 233.734C363.064 233.68 362.647 233.634 362.649 233.604C362.651 233.572 363.07 233.558 363.828 233.559C364.585 233.568 365.681 233.552 367.031 233.497C369.731 233.395 373.458 233.034 377.476 232.141C381.492 231.24 385.003 229.982 387.476 228.93C388.713 228.405 389.704 227.956 390.38 227.627C391.06 227.305 391.444 227.139 391.46 227.165Z" fill="#17282F"/>
<path d="M308.257 341.324C308.203 340.864 306.848 329.03 306.848 329.03L358.871 324.515L360.054 335.763L308.257 341.324Z" fill="#DADBD8"/>
<path d="M441.979 264.171L436.388 272.428H440.019L437.56 279.658L444.587 270.281H440.842L441.979 264.171Z" fill="#DADBD8"/>
<path d="M337.629 183.973C337.629 183.973 327.172 200.897 327.16 211.517L277.665 234.772L282.93 248.727C282.93 248.727 341.716 241.972 345.714 239.91C349.712 237.848 360.186 229.56 363.139 223.084C366.094 216.609 370.784 197.278 370.784 197.278L337.629 183.973Z" fill="#F8A58D"/>
<path d="M340.174 213.62C340.128 213.681 339.497 213.252 338.394 212.724C337.294 212.192 335.692 211.612 333.84 211.342C331.984 211.079 330.276 211.185 329.064 211.385C327.85 211.579 327.116 211.813 327.09 211.741C327.071 211.696 327.771 211.354 328.999 211.072C330.224 210.786 331.991 210.624 333.908 210.895C335.823 211.175 337.466 211.826 338.55 212.443C339.641 213.058 340.207 213.583 340.174 213.62Z" fill="#F68260"/>
<path d="M240.707 229.063L228.029 242.614L266.547 250.491L265.887 233.754L240.707 229.063Z" fill="#B0C7F5"/>
<path d="M278.526 233.753C278.526 233.753 271.129 232.055 267.563 232.355C263.997 232.654 247.871 236.131 247.871 236.131C247.871 236.131 246.63 238.935 250.662 240.132C254.693 241.329 260.12 240.132 260.12 240.132C260.12 240.132 250.197 247.76 250.041 248.358C249.886 248.957 248.645 250.302 250.197 251.349C251.747 252.396 256.399 251.349 256.399 251.349C256.399 251.349 256.399 254.64 257.794 255.537C259.189 256.434 260.43 257.183 260.43 257.183C260.43 257.183 262.911 259.725 264.462 260.174C266.012 260.623 269.114 261.221 269.114 261.221H273.765L286.318 250.976L297.15 248.727L290.249 228.512L278.526 233.753Z" fill="#1D3F70"/>
<path d="M263.996 249.12C264.051 249.227 262.472 250.058 260.366 250.697C258.262 251.342 256.476 251.538 256.458 251.421C256.432 251.293 258.155 250.903 260.225 250.267C262.298 249.639 263.939 249.002 263.996 249.12Z" fill="#17282F"/>
<path d="M285.791 240.464C285.923 240.469 285.943 242.924 285.971 245.947C285.995 248.971 286.017 251.425 285.885 251.432C285.759 251.438 285.527 248.986 285.503 245.951C285.476 242.917 285.666 240.46 285.791 240.464Z" fill="#17282F"/>
<path d="M284.102 231.26L290.739 250.058L295.255 249.12L287.562 229.714L284.102 231.26Z" fill="#DADBD8"/>
<path d="M360.744 143.538C360.744 143.538 345.723 147.339 342.768 153.752C339.813 160.165 330.58 191.589 330.58 191.589L370.784 205.281C370.784 205.281 375.961 182.961 378.178 174.41C380.393 165.86 387.339 149.477 360.744 143.538Z" fill="#3A72AA"/>
<path d="M330.58 191.589C330.583 191.583 330.656 191.599 330.799 191.639C330.967 191.689 331.172 191.75 331.427 191.826C332.011 192.011 332.812 192.265 333.827 192.585C335.943 193.276 338.942 194.255 342.638 195.46C350.099 197.941 360.36 201.353 371.732 205.132L371.425 205.309C371.463 205.081 371.505 204.833 371.547 204.585C373.525 192.97 375.316 182.459 376.619 174.806C377.285 171.027 377.827 167.956 378.21 165.79C378.403 164.755 378.554 163.936 378.665 163.342C378.718 163.085 378.761 162.877 378.795 162.707C378.827 162.565 378.848 162.492 378.855 162.493C378.863 162.495 378.859 162.569 378.843 162.715C378.819 162.885 378.793 163.096 378.758 163.356C378.668 163.955 378.546 164.777 378.389 165.817C378.042 167.99 377.551 171.068 376.945 174.857C375.676 182.515 373.934 193.034 372.007 204.657C371.967 204.906 371.925 205.153 371.886 205.382L371.841 205.648L371.579 205.559C360.224 201.728 349.979 198.272 342.53 195.759C338.855 194.497 335.872 193.472 333.768 192.749C332.765 192.395 331.973 192.115 331.396 191.911C331.148 191.818 330.946 191.742 330.784 191.682C330.645 191.628 330.577 191.597 330.58 191.589Z" fill="#17282F"/>
<path d="M381.226 167.064C381.258 167.069 381.242 167.345 381.183 167.84C381.128 168.335 381.016 169.048 380.849 169.924C380.518 171.675 379.925 174.077 379.027 176.655C378.125 179.235 377.092 181.493 376.257 183.081C375.842 183.876 375.484 184.509 375.218 184.936C374.954 185.365 374.794 185.594 374.766 185.579C374.702 185.546 375.207 184.56 375.959 182.945C376.712 181.33 377.689 179.07 378.584 176.512C379.475 173.953 380.113 171.584 380.526 169.859C380.939 168.133 381.155 167.054 381.226 167.064Z" fill="#17282F"/>
<path d="M333.109 192.502C333.121 192.508 333.07 192.63 332.963 192.859C332.836 193.122 332.676 193.453 332.48 193.86C332.059 194.733 331.442 196.006 330.751 197.645C329.345 200.901 327.813 205.722 327.38 211.534L327.371 211.655L327.255 211.71C324.439 213.022 321.366 214.455 318.167 215.947C310.516 219.56 303.604 222.86 298.564 225.177C296.046 226.339 293.999 227.261 292.578 227.887C291.901 228.178 291.356 228.412 290.937 228.592C290.559 228.75 290.358 228.824 290.351 228.811C290.344 228.797 290.532 228.694 290.897 228.51C291.305 228.311 291.838 228.051 292.5 227.728C293.946 227.035 295.957 226.071 298.419 224.891C303.463 222.477 310.35 219.183 317.96 215.543C321.157 214.035 324.237 212.607 327.066 211.326L326.94 211.501C327.407 205.644 329.015 200.784 330.499 197.543C331.228 195.912 331.886 194.652 332.349 193.796C332.572 193.402 332.752 193.081 332.897 192.826C333.026 192.607 333.098 192.497 333.109 192.502Z" fill="#F68260"/>
<path d="M356.209 172.627L350.618 180.884H354.249L351.789 188.114L358.817 178.737H355.071L356.209 172.627Z" fill="#FFBB4D"/>
<path d="M358.608 193.045C358.565 193.163 355.229 192.154 351.157 190.793C347.085 189.43 343.818 188.232 343.86 188.114C343.903 187.996 347.238 189.004 351.311 190.367C355.382 191.729 358.65 192.927 358.608 193.045Z" fill="#FFBB4D"/>
<path d="M195.846 221.179H167.674V194.007H195.846V221.179Z" fill="#B0C7F5"/>
<path d="M191.366 207.626C191.305 207.631 191.357 206.818 190.984 205.434C190.617 204.076 189.671 202.084 187.554 200.546C186.505 199.795 185.185 199.158 183.666 198.904C182.156 198.66 180.455 198.709 178.838 199.306C178.024 199.58 177.239 199.994 176.519 200.516C175.789 201.028 175.127 201.662 174.581 202.398C173.454 203.847 172.819 205.707 172.8 207.625C172.819 209.544 173.454 211.404 174.58 212.854C175.126 213.59 175.789 214.225 176.518 214.737C177.239 215.259 178.024 215.673 178.838 215.946C180.455 216.544 182.157 216.593 183.666 216.348C185.185 216.094 186.505 215.457 187.555 214.706C189.671 213.168 190.617 211.176 190.984 209.818C191.357 208.435 191.305 207.622 191.366 207.626C191.366 207.626 191.484 208.437 191.161 209.861C190.84 211.256 189.921 213.333 187.755 214.96C186.682 215.755 185.318 216.435 183.737 216.716C182.168 216.989 180.391 216.951 178.691 216.338C177.836 216.055 177.011 215.626 176.252 215.082C175.484 214.549 174.788 213.886 174.211 213.116C173.024 211.598 172.35 209.64 172.332 207.625C172.351 205.611 173.025 203.653 174.212 202.136C174.788 201.367 175.485 200.703 176.253 200.17C177.011 199.627 177.836 199.198 178.691 198.915C180.391 198.302 182.167 198.265 183.737 198.537C185.317 198.817 186.681 199.497 187.754 200.292C189.921 201.919 190.84 203.996 191.161 205.391C191.484 206.816 191.366 207.626 191.366 207.626Z" fill="#17282F"/>
<path d="M179.883 207.387C179.883 208.196 179.203 208.853 178.363 208.853C177.522 208.853 176.841 208.196 176.841 207.387C176.841 206.575 177.522 205.919 178.363 205.919C179.203 205.919 179.883 206.575 179.883 207.387Z" fill="#17282F"/>
<path d="M187.273 207.387C187.273 208.196 186.591 208.853 185.751 208.853C184.912 208.853 184.23 208.196 184.23 207.387C184.23 206.575 184.912 205.919 185.751 205.919C186.591 205.919 187.273 206.575 187.273 207.387Z" fill="#17282F"/>
<path d="M172.568 218.563C172.568 219.27 171.974 219.843 171.241 219.843C170.508 219.843 169.914 219.27 169.914 218.563C169.914 217.856 170.508 217.282 171.241 217.282C171.974 217.282 172.568 217.856 172.568 218.563Z" fill="#DADBD8"/>
<path d="M171.818 217.921C171.865 218.039 171.585 218.251 171.326 218.557C171.06 218.858 170.894 219.161 170.764 219.138C170.638 219.124 170.618 218.671 170.967 218.269C171.315 217.864 171.782 217.803 171.818 217.921Z" fill="#17282F"/>
<path d="M171.831 218.934C171.706 218.977 171.488 218.704 171.151 218.482C170.821 218.25 170.481 218.143 170.483 218.015C170.471 217.892 170.959 217.798 171.42 218.114C171.883 218.429 171.954 218.903 171.831 218.934Z" fill="#17282F"/>
<path d="M194.526 218.563C194.526 219.27 193.932 219.843 193.199 219.843C192.465 219.843 191.871 219.27 191.871 218.563C191.871 217.856 192.465 217.282 193.199 217.282C193.932 217.282 194.526 217.856 194.526 218.563Z" fill="#DADBD8"/>
<path d="M193.776 217.921C193.823 218.039 193.542 218.251 193.284 218.557C193.018 218.858 192.852 219.161 192.722 219.138C192.596 219.124 192.576 218.671 192.925 218.269C193.273 217.864 193.739 217.803 193.776 217.921Z" fill="#17282F"/>
<path d="M193.788 218.934C193.664 218.977 193.446 218.704 193.109 218.482C192.779 218.25 192.439 218.143 192.44 218.015C192.428 217.892 192.916 217.798 193.378 218.114C193.841 218.429 193.912 218.903 193.788 218.934Z" fill="#17282F"/>
<path d="M194.526 196.563C194.526 197.27 193.932 197.843 193.199 197.843C192.465 197.843 191.871 197.27 191.871 196.563C191.871 195.856 192.465 195.282 193.199 195.282C193.932 195.282 194.526 195.856 194.526 196.563Z" fill="#DADBD8"/>
<path d="M193.776 195.92C193.823 196.039 193.542 196.251 193.284 196.558C193.018 196.858 192.852 197.162 192.722 197.138C192.596 197.124 192.576 196.671 192.925 196.269C193.273 195.865 193.739 195.804 193.776 195.92Z" fill="#17282F"/>
<path d="M193.788 196.933C193.664 196.977 193.446 196.704 193.109 196.482C192.779 196.249 192.439 196.142 192.44 196.015C192.428 195.893 192.916 195.798 193.378 196.114C193.841 196.428 193.912 196.903 193.788 196.933Z" fill="#17282F"/>
<path d="M172.56 196.563C172.56 197.27 171.966 197.843 171.233 197.843C170.499 197.843 169.905 197.27 169.905 196.563C169.905 195.856 170.499 195.282 171.233 195.282C171.966 195.282 172.56 195.856 172.56 196.563Z" fill="#DADBD8"/>
<path d="M171.809 195.92C171.857 196.039 171.576 196.251 171.318 196.558C171.051 196.858 170.886 197.162 170.756 197.138C170.63 197.124 170.61 196.671 170.959 196.269C171.307 195.865 171.773 195.804 171.809 195.92Z" fill="#17282F"/>
<path d="M171.822 196.933C171.698 196.977 171.48 196.704 171.142 196.482C170.812 196.249 170.473 196.142 170.474 196.015C170.462 195.893 170.95 195.798 171.412 196.114C171.875 196.428 171.945 196.903 171.822 196.933Z" fill="#17282F"/>
<path d="M227.633 221.179H199.46V194.007H227.633V221.179Z" fill="#17282F"/>
<path d="M207.236 194.007C207.275 193.998 207.279 194.298 207.54 194.779C207.793 195.262 208.296 195.909 209.083 196.61C210.647 198.025 213.279 199.666 216.668 201.415C218.363 202.291 220.251 203.198 222.297 204.133C223.324 204.595 224.386 205.073 225.478 205.565C226.564 206.054 227.731 206.54 228.798 207.249C230.929 208.61 232.954 210.598 233.833 213.234C234.714 215.825 234.499 218.898 232.949 221.409C231.412 223.911 228.789 225.663 225.995 226.167C223.188 226.69 220.404 226.064 218.08 225.025C215.727 223.978 213.806 222.461 212.16 220.953C210.517 219.428 209.132 217.882 207.863 216.484C205.31 213.709 203.11 211.57 201.661 210.029C200.93 209.265 200.373 208.661 200.004 208.246C199.837 208.052 199.7 207.896 199.59 207.767C199.498 207.657 199.455 207.599 199.46 207.593C199.467 207.588 199.522 207.637 199.625 207.736C199.745 207.857 199.892 208.004 200.073 208.185C200.493 208.606 201.067 209.182 201.793 209.91C203.282 211.411 205.514 213.512 208.111 216.273C209.396 217.657 210.79 219.186 212.428 220.681C214.068 222.162 215.965 223.638 218.26 224.647C220.531 225.651 223.228 226.24 225.907 225.733C228.57 225.25 231.081 223.567 232.547 221.18C234.023 218.792 234.235 215.848 233.398 213.371C232.568 210.859 230.632 208.931 228.559 207.594C227.524 206.901 226.401 206.425 225.304 205.924C224.214 205.424 223.155 204.939 222.13 204.47C220.087 203.518 218.203 202.594 216.51 201.695C213.129 199.903 210.505 198.211 208.956 196.737C208.178 196.006 207.687 195.326 207.455 194.818C207.34 194.563 207.276 194.362 207.263 194.218C207.237 194.079 207.228 194.007 207.236 194.007Z" fill="#33535F"/>
<path d="M218.4 194.007C218.426 194.016 218.343 194.311 218.117 194.817C217.897 195.324 217.505 196.034 216.893 196.83C215.68 198.42 213.369 200.235 210.311 201.064C208.763 201.429 207.241 201.384 205.9 201.216C204.556 201.036 203.378 200.718 202.417 200.392C201.454 200.061 200.705 199.725 200.206 199.46C199.706 199.197 199.447 199.022 199.46 198.997C199.498 198.927 200.599 199.517 202.52 200.088C203.479 200.372 204.642 200.65 205.955 200.804C207.263 200.945 208.733 200.972 210.197 200.627C213.123 199.831 215.395 198.124 216.633 196.633C217.891 195.129 218.314 193.965 218.4 194.007Z" fill="#33535F"/>
<path d="M210.166 206.347C209.865 206.347 209.562 206.34 209.258 206.326C205.725 206.153 202.134 204.758 199.088 203.414L199.834 201.838C202.726 203.113 206.118 204.438 209.348 204.596C212.785 204.761 215.931 203.877 218.195 202.102C220.672 200.156 221.953 197.033 221.383 194.33L223.142 193.983C223.854 197.353 222.357 201.067 219.328 203.445C216.924 205.332 213.699 206.347 210.166 206.347Z" fill="#33535F"/>
<path d="M212.473 194.006C212.473 194.006 212.369 194.241 212.073 194.63C211.779 195.02 211.278 195.558 210.516 196.111C209.756 196.666 208.734 197.208 207.585 197.863C206.44 198.517 205.183 199.364 204.117 200.601C203.585 201.213 203.116 201.931 202.823 202.744C202.536 203.552 202.453 204.48 202.75 205.352C203.308 207.135 205.303 208.379 207.423 208.66C209.598 208.934 211.884 208.286 214.178 207.574C216.467 206.879 219.005 206.083 221.656 206.562C222.97 206.818 224.175 207.462 225.067 208.385C225.965 209.294 226.493 210.589 226.299 211.83C226.132 213.075 225.375 214.12 224.515 214.909C223.644 215.707 222.644 216.308 221.632 216.79C217.565 218.721 213.421 219.207 210.046 219.134C206.643 219.066 203.949 218.387 202.16 217.812C201.269 217.499 200.584 217.243 200.138 217.025C199.687 216.821 199.454 216.707 199.46 216.694C199.468 216.679 199.714 216.765 200.175 216.941C200.631 217.131 201.323 217.36 202.217 217.644C204.01 218.165 206.689 218.789 210.052 218.815C213.388 218.848 217.467 218.329 221.438 216.418C222.421 215.945 223.384 215.358 224.206 214.598C225.02 213.846 225.702 212.879 225.845 211.773C226.013 210.67 225.551 209.528 224.726 208.69C223.907 207.843 222.779 207.241 221.567 207.004C219.078 206.55 216.606 207.302 214.316 207.994C212.019 208.698 209.668 209.371 207.363 209.072C206.226 208.913 205.156 208.507 204.265 207.895C203.373 207.288 202.675 206.429 202.38 205.463C202.062 204.505 202.165 203.488 202.481 202.63C202.804 201.765 203.305 201.023 203.864 200.396C204.981 199.132 206.286 198.285 207.453 197.646C208.625 197.006 209.644 196.493 210.409 195.969C211.946 194.916 212.422 193.961 212.473 194.006Z" fill="#33535F"/>
<path d="M239.996 204.129C240.005 204.152 239.584 204.325 238.796 204.551C238.009 204.78 236.839 205.029 235.37 205.167C232.445 205.466 228.262 205.106 224.086 203.43C219.908 201.758 216.653 199.286 214.526 197.348C213.456 196.374 212.646 195.534 212.11 194.936C211.572 194.337 211.298 193.987 211.321 193.969C211.347 193.946 211.666 194.256 212.243 194.816C212.817 195.377 213.659 196.176 214.748 197.111C216.917 198.976 220.159 201.37 224.264 203.014C228.367 204.658 232.456 205.062 235.343 204.849C238.25 204.658 239.971 204.035 239.996 204.129Z" fill="#33535F"/>
<path d="M244.528 200.664C244.633 200.723 244.008 201.805 242.781 202.732C241.562 203.667 240.327 204.002 240.291 203.892C240.239 203.769 241.338 203.266 242.492 202.378C243.655 201.502 244.417 200.587 244.528 200.664Z" fill="#F2575D"/>
<path d="M246.185 205.504C246.098 205.611 244.966 204.725 243.274 204.345C241.588 203.938 240.162 204.228 240.136 204.093C240.081 203.991 241.565 203.473 243.384 203.906C245.207 204.322 246.282 205.436 246.185 205.504Z" fill="#F2575D"/>
<path d="M242.794 208.698C242.731 208.658 242.926 208.356 242.981 207.828C243.043 207.309 242.921 206.549 242.455 205.885C241.981 205.217 241.328 204.777 240.846 204.485C240.36 204.193 240.037 204.028 240.062 203.966C240.084 203.913 240.45 203.971 241.001 204.203C241.543 204.435 242.298 204.868 242.842 205.631C243.386 206.406 243.468 207.304 243.307 207.884C243.148 208.479 242.831 208.732 242.794 208.698Z" fill="#F2575D"/>
</svg>
