<svg width="475" height="458" viewBox="0 0 475 458" fill="none" xmlns="http://www.w3.org/2000/svg">
<path d="M360.845 242.447L361.222 246.285C361.195 246.061 371.066 245.772 371.066 245.772L371.071 241.911C371.071 241.911 360.834 242.212 360.845 242.447Z" fill="#FBE366"/>
<path d="M345.751 245.439L346.987 249.103C346.987 249.103 347.573 248.921 348.437 248.664C349.306 248.413 350.454 247.992 351.662 247.805C354.047 247.325 356.447 246.839 356.447 246.839L355.841 243.027C355.841 243.027 353.303 243.535 350.761 244.049C349.486 244.256 348.25 244.689 347.31 244.973C346.381 245.247 345.751 245.439 345.751 245.439Z" fill="#FBE366"/>
<path d="M331.845 252.213L334.075 255.38C333.889 255.068 342.431 250.485 342.546 250.743L340.971 247.211C340.839 246.941 331.637 251.885 331.845 252.213Z" fill="#FBE366"/>
<path d="M313.042 276.341L316.553 277.944C316.553 277.944 317.565 275.697 318.719 273.525C319.305 272.464 319.895 271.388 320.326 270.595C320.813 269.828 321.137 269.309 321.137 269.309L317.887 267.231C317.887 267.231 317.543 267.777 317.018 268.609C316.553 269.452 315.925 270.595 315.306 271.732C314.087 274.012 313.042 276.341 313.042 276.341Z" fill="#FBE366"/>
<path d="M307.689 289.805L310.861 292.273C310.861 292.273 311.762 289.844 312.67 287.4C313.622 284.972 314.569 282.549 314.569 282.549L311.129 280.772C311.129 280.772 310.253 283.019 309.362 285.273C308.531 287.537 307.689 289.805 307.689 289.805Z" fill="#FBE366"/>
<path d="M302.438 303.199L305.102 306.579C305.102 306.579 306.206 304.255 307.163 301.853C308.181 299.475 309.073 297.041 309.073 297.041L306.053 294.236C306.053 294.236 305.189 296.489 304.319 298.747C303.455 301.005 302.438 303.199 302.438 303.199Z" fill="#FBE366"/>
<path d="M295.154 315.559L297.139 319.605C297.139 319.605 297.605 319.156 298.151 318.369C298.719 317.588 299.474 316.548 300.223 315.509C300.907 314.42 301.574 313.321 302.089 312.501C302.581 311.681 302.849 311.101 302.849 311.101L300.405 307.464C300.405 307.464 299.261 309.592 298.003 311.659C297.303 312.649 296.603 313.633 296.089 314.377C295.586 315.137 295.154 315.559 295.154 315.559Z" fill="#FBE366"/>
<path d="M283.883 324.287L285.021 328.771C285.021 328.771 285.6 328.481 286.463 328.055C287.328 327.623 288.498 327.092 289.538 326.309C291.758 324.969 293.623 323.199 293.629 323.199L291.9 318.976C291.9 318.976 290.167 320.671 288.094 321.945C287.137 322.689 286.038 323.204 285.229 323.603C284.419 324.019 283.883 324.287 283.883 324.287Z" fill="#FBE366"/>
<path d="M269.938 327.48L270.129 332.135C270.129 332.135 272.689 331.877 275.253 331.604C276.517 331.336 277.774 331.073 278.726 330.865C279.683 330.691 280.295 330.499 280.295 330.499L279.459 325.921C279.453 325.921 278.879 326.107 277.987 326.283C277.107 326.468 275.921 326.725 274.739 326.977C272.333 327.224 269.938 327.48 269.938 327.48Z" fill="#FBE366"/>
<path d="M255.598 326.681L254.833 331.287C254.833 331.287 255.457 331.424 256.409 331.615C257.37 331.697 258.655 331.805 259.941 331.916C261.226 332.019 262.511 332.128 263.474 332.205C264.437 332.2 265.082 332.205 265.082 332.205L265.207 327.54C265.207 327.54 264.606 327.54 263.693 327.545C262.801 327.469 261.593 327.376 260.383 327.277C259.186 327.175 257.977 327.069 257.086 326.993C256.189 326.807 255.598 326.681 255.598 326.681Z" fill="#FBE366"/>
<path d="M242.67 320.769L241.002 325.063C240.926 325.161 243.091 326.556 245.279 327.912C246.307 328.7 247.614 328.979 248.472 329.416C249.363 329.783 249.961 330.024 249.961 330.024L251.038 325.5C251.038 325.5 250.48 325.265 249.643 324.916C248.844 324.505 247.625 324.237 246.658 323.488C244.618 322.181 242.594 320.868 242.67 320.769Z" fill="#FBE366"/>
<path d="M233.368 309.876L230.951 313.605C230.951 313.605 232.416 315.717 233.876 317.828C235.56 319.769 237.251 321.711 237.251 321.711L239.187 317.571C239.187 317.571 237.628 315.723 236.07 313.885C234.712 311.877 233.368 309.876 233.368 309.876Z" fill="#FBE366"/>
<path d="M226.991 296.997L223.973 299.928C223.973 299.928 224.979 302.313 226.073 304.653C227.079 307.043 228.402 309.253 228.402 309.253L231.038 305.769C231.038 305.769 229.825 303.675 228.911 301.427C227.915 299.228 226.991 296.997 226.991 296.997Z" fill="#FBE366"/>
<path d="M222.403 283.364L218.947 285.321C218.947 285.321 219.669 287.821 220.495 290.281C221.266 292.764 222.158 295.199 222.158 295.199L225.334 292.568C225.334 292.568 224.525 290.288 223.814 287.98C223.065 285.688 222.403 283.364 222.403 283.364Z" fill="#FBE366"/>
<path d="M218.875 269.391L215.125 270.316C215.125 270.316 215.721 272.837 216.322 275.363C216.907 277.905 217.585 280.416 217.585 280.416L221.157 278.797C221.157 278.797 220.527 276.468 219.986 274.111C219.434 271.753 218.875 269.391 218.875 269.391Z" fill="#FBE366"/>
<path d="M215.934 254.833L212.133 255.533L214.085 265.448L217.863 264.639L215.934 254.833Z" fill="#FBE366"/>
<path d="M213.381 240.123L209.574 240.745L211.263 250.677L215.063 250.004L213.381 240.123Z" fill="#FBE366"/>
<path d="M211.023 225.352L207.217 225.953L208.781 235.895L212.593 235.272L211.023 225.352Z" fill="#FBE366"/>
<path d="M208.705 210.553L204.893 211.165L206.457 221.085L210.269 220.489L208.705 210.553Z" fill="#FBE366"/>
<path d="M206.233 195.765L202.437 196.439L204.105 206.315L207.911 205.697L206.233 195.765Z" fill="#FBE366"/>
<path d="M203.405 181.005L199.642 181.776C199.642 181.776 200.139 184.227 200.638 186.681C201.102 189.148 201.551 191.604 201.551 191.604L205.358 190.899C205.358 190.899 204.903 188.42 204.438 185.943C203.925 183.472 203.405 181.005 203.405 181.005Z" fill="#FBE366"/>
<path d="M199.975 166.311L196.241 167.317C196.241 167.317 196.863 169.728 197.482 172.14C198.051 174.568 198.614 176.996 198.614 176.996L202.377 176.16C202.377 176.16 201.809 173.688 201.234 171.227C200.605 168.777 199.975 166.311 199.975 166.311Z" fill="#FBE366"/>
<path d="M195.442 151.863L191.833 153.203C191.833 153.203 192.713 155.504 193.485 157.867C194.211 160.252 194.945 162.619 194.945 162.619L198.647 161.531C198.647 161.531 197.903 159.097 197.149 156.669C196.355 154.247 195.442 151.863 195.442 151.863Z" fill="#FBE366"/>
<path d="M189.006 137.912L185.735 139.979C185.735 139.979 186.883 142.112 188.021 144.255C189.121 146.42 190.045 148.712 190.045 148.724L193.594 147.192C193.594 147.197 192.637 144.829 191.467 142.511C190.242 140.208 189.006 137.912 189.006 137.912Z" fill="#FBE366"/>
<path d="M178.998 126.137L176.461 129.052C176.461 129.052 176.925 129.44 177.609 130.037C178.254 130.671 179.305 131.332 180.031 132.305C180.813 133.225 181.606 134.155 182.191 134.843C182.821 135.5 183.126 136.036 183.126 136.036L186.173 133.656C186.173 133.656 185.85 133.088 185.178 132.372C184.538 131.628 183.695 130.639 182.842 129.643C182.055 128.599 180.923 127.881 180.229 127.199C179.49 126.559 178.998 126.137 178.998 126.137Z" fill="#FBE366"/>
<path d="M166.015 117.825L164.233 121.243C164.233 121.243 164.795 121.472 165.589 121.959C166.375 122.429 167.442 123.053 168.498 123.671C170.674 124.868 172.605 126.307 172.605 126.307L174.853 123.152C174.853 123.152 172.725 121.599 170.477 120.363C169.383 119.712 168.274 119.055 167.442 118.575C166.617 118.065 166.015 117.825 166.015 117.825Z" fill="#FBE366"/>
<path d="M151.643 112.247L150.746 115.999C150.746 115.999 153.07 116.676 155.395 117.355C157.659 118.252 159.929 119.137 159.929 119.137L161.475 115.611C161.475 115.611 159.07 114.664 156.647 113.712C154.153 112.985 151.643 112.247 151.643 112.247Z" fill="#FBE366"/>
<path d="M136.03 111.476L136.61 115.292C136.61 115.292 137.195 115.189 138.081 115.057C138.955 114.964 140.159 114.964 141.339 114.909C143.719 114.883 146.109 115.161 146.109 115.161L146.59 111.328C146.59 111.328 143.959 111.021 141.307 111.043C139.989 111.109 138.661 111.12 137.67 111.224C136.686 111.372 136.03 111.476 136.03 111.476Z" fill="#FBE366"/>
<path d="M121.411 117.18L123.555 120.395C123.555 120.395 124.053 120.061 124.786 119.564C125.574 119.137 126.63 118.575 127.669 118.011C128.746 117.507 129.861 117.113 130.682 116.759C131.491 116.403 132.098 116.332 132.082 116.299L130.955 112.613C130.955 112.613 130.287 112.723 129.369 113.139C128.45 113.521 127.198 113.964 126.001 114.532C124.83 115.161 123.659 115.785 122.79 116.261C121.959 116.819 121.411 117.18 121.411 117.18Z" fill="#FBE366"/>
<path d="M110.174 127.925L113.231 130.271C113.231 130.271 113.597 129.78 114.149 129.063C114.757 128.38 115.545 127.472 116.342 126.548C118.015 124.813 119.821 123.217 119.821 123.217L117.305 120.296C117.305 120.296 115.325 122.036 113.521 123.917C112.662 124.907 111.803 125.885 111.163 126.629C110.573 127.395 110.174 127.925 110.174 127.925Z" fill="#FBE366"/>
<path d="M102.298 141.116L105.787 142.735C105.602 142.641 110.315 134.045 110.485 134.165L107.247 132.071C107.247 132.071 105.863 134.264 104.595 136.512C103.387 138.792 102.298 141.116 102.298 141.116Z" fill="#FBE366"/>
<path d="M97.0818 155.493L100.806 156.5C100.806 156.5 101.462 154.127 102.211 151.785C103.005 149.451 103.906 147.164 103.906 147.164L100.309 145.748C100.309 145.748 99.3725 148.139 98.5472 150.572C97.7592 153.016 97.0872 155.493 97.0818 155.493Z" fill="#FBE366"/>
<path d="M94.3525 170.581L98.2019 170.849C98.2019 170.849 98.3885 168.443 98.7765 166.016C99.1485 163.581 99.6685 161.187 99.6685 161.187L95.8885 160.372C95.8885 160.372 95.3472 162.888 94.9645 165.431C94.5485 167.968 94.3525 170.581 94.3525 170.581Z" fill="#FBE366"/>
<path d="M95.1832 185.835L99.0232 185.445L98.3178 178.845C98.1912 177.768 98.1205 176.668 98.0712 175.58L94.2098 175.689C94.2645 176.86 94.3365 178.041 94.4778 179.205L95.1832 185.835Z" fill="#FBE366"/>
<path d="M96.4419 200.688L100.291 200.425L99.4939 190.363L95.6486 190.712L96.4419 200.688Z" fill="#FBE366"/>
<path d="M97.1846 215.563L101.041 215.453C101.041 215.453 100.959 212.927 100.866 210.395C100.734 207.889 100.609 205.352 100.609 205.352L96.7526 205.571C96.7526 205.571 96.8792 208.069 97.0099 210.569C97.0979 213.063 97.1846 215.563 97.1846 215.563Z" fill="#FBE366"/>
<path d="M97.2952 230.437L101.15 230.503C101.15 230.503 101.167 227.976 101.189 225.444C101.167 222.912 101.145 220.391 101.145 220.391L97.2885 220.445C97.2885 220.445 97.3112 222.945 97.3272 225.439C97.3165 227.939 97.2952 230.437 97.2952 230.437Z" fill="#FBE366"/>
<path d="M96.6272 245.275L100.473 245.569C100.473 245.569 100.619 243.043 100.778 240.511C100.963 237.984 101.009 235.457 101.009 235.457L97.1472 235.316C97.1472 235.316 97.0979 237.815 96.9285 240.297C96.7752 242.791 96.6272 245.275 96.6272 245.275Z" fill="#FBE366"/>
<path d="M94.9592 259.996L98.7766 260.581C98.7766 260.581 99.1206 258.065 99.4486 255.555C99.8046 253.033 100.018 250.507 100.018 250.507L96.1739 250.125C96.1739 250.125 95.9712 252.613 95.6152 255.068C95.3046 257.535 94.9592 259.996 94.9592 259.996Z" fill="#FBE366"/>
<path d="M92.0112 274.461L95.7526 275.428C95.7526 275.428 96.4086 272.963 96.9232 270.475C97.5086 267.996 97.9339 265.487 97.9339 265.487L94.1446 264.787C94.1392 264.792 93.7179 267.237 93.1486 269.643C92.6512 272.081 92.0112 274.461 92.0112 274.461Z" fill="#FBE366"/>
<path d="M87.3738 288.368L90.9285 289.867C90.9285 289.867 92.0232 287.537 92.7885 285.092C93.6245 282.675 94.4179 280.247 94.4179 280.247L90.7325 279.125C90.7325 279.125 89.9498 281.467 89.1578 283.791C88.4192 286.153 87.3738 288.368 87.3738 288.368Z" fill="#FBE366"/>
<path d="M80.5005 301.088L83.6005 303.412C83.6005 303.407 85.0725 301.247 86.4339 299.043C87.6525 296.752 88.8672 294.465 88.8672 294.465L85.4112 292.743C85.4112 292.743 84.2739 294.897 83.1312 297.036C81.8125 299.064 80.5005 301.088 80.5005 301.088Z" fill="#FBE366"/>
<path d="M70.7445 311.588L73.0738 314.695C73.3032 314.973 80.7018 307.628 80.4885 307.427L77.6178 304.835C77.8152 305.009 70.9618 311.851 70.7445 311.588Z" fill="#FBE366"/>
<path d="M58.1325 318.364L59.4832 322C59.4832 322 60.1018 321.788 61.0258 321.453C61.9285 321.104 63.2085 320.776 64.3298 320.092C66.6258 318.883 68.9338 317.675 68.9338 317.675L66.9098 314.344C66.9098 314.344 64.7605 315.476 62.6338 316.592C61.5885 317.243 60.4085 317.516 59.5605 317.855C58.7125 318.167 58.1325 318.364 58.1325 318.364Z" fill="#FBE366"/>
<path d="M44.0339 320.896L44.2912 324.745C44.2912 324.745 46.8832 324.56 49.4872 324.357C52.0579 324.007 54.5952 323.395 54.6005 323.389L53.5992 319.649C53.5992 319.649 51.2472 320.217 48.8525 320.535C46.4459 320.716 44.0339 320.896 44.0339 320.896Z" fill="#FBE366"/>
<path d="M29.5969 319.835L28.9683 323.641C28.9683 323.641 31.5109 324.024 34.0432 324.417C36.6131 324.641 39.2112 324.707 39.2112 324.707L39.3045 320.847C39.3045 320.847 36.8756 320.787 34.4532 320.584C32.0251 320.207 29.5969 319.835 29.5969 319.835Z" fill="#FBE366"/>
<path d="M15.3344 316.373L14.1865 320.059C14.1037 320.289 24.0407 322.717 24.0407 322.717L24.8719 318.943C24.8719 318.943 15.2798 316.608 15.3344 316.373Z" fill="#FBE366"/>
<path d="M1.50374 311.195L0 314.76C0 314.76 2.3464 315.733 4.68707 316.712C5.84067 317.237 7.04373 317.659 7.95733 317.943C8.85947 318.255 9.46093 318.456 9.46093 318.456L10.7464 314.82C10.7464 314.82 10.1552 314.623 9.2808 314.323C8.38907 314.049 7.22453 313.623 6.09227 313.119C3.80107 312.163 1.50374 311.195 1.50374 311.195Z" fill="#FBE366"/>
<path d="M380.095 324.795C379.471 339.801 366.773 351.417 351.777 350.767C336.761 350.116 325.129 337.444 325.751 322.427C326.425 307.432 339.111 295.816 354.097 296.451C369.113 297.096 380.746 309.777 380.095 324.795Z" fill="#CBE9F4"/>
<path d="M349.929 394.089C311.013 392.411 280.815 359.495 282.499 320.568C284.189 281.652 317.095 251.464 356.021 253.132C394.915 254.823 425.158 287.733 423.446 326.655C421.773 365.576 388.877 395.768 349.929 394.089ZM447.509 308.509C438.949 300.885 434.415 287.925 436.117 276.939C437.177 270.069 456.498 258.109 456.498 258.109L427.678 226.789C427.678 226.789 414.154 245.116 407.242 245.591C396.659 246.363 384.699 240.932 378.262 232.1C374.177 226.477 379.471 204.379 379.471 204.379L336.897 202.547C336.897 202.547 340.233 225.045 335.705 230.263C329.426 237.481 318.233 241.151 309.089 239.319C302.274 237.968 291.261 218.095 291.261 218.095L258.65 245.488C258.65 245.488 276.303 259.793 276.483 266.712C276.769 278.339 270.594 291.168 260.843 298.113C255.177 302.149 233.101 296.571 233.101 296.571L230.715 339.112C230.715 339.112 253.214 336.023 258.366 340.627C266.93 348.289 271.474 361.249 269.779 372.22C268.723 379.077 249.37 391.032 249.37 391.032L278.19 422.352C278.19 422.352 291.703 404.043 298.638 403.561C309.187 402.807 321.19 408.248 327.633 417.041C331.713 422.675 326.458 444.757 326.458 444.757L368.998 446.595C368.998 446.595 365.63 424.107 370.158 418.88C376.463 411.677 387.681 407.991 396.823 409.828C403.61 411.201 414.641 431.059 414.641 431.059L447.246 403.66C447.246 403.66 429.603 389.348 429.395 382.425C429.127 370.809 435.297 357.991 445.047 351.028C450.713 347.02 472.806 352.599 472.806 352.599L475.158 310.068C475.158 310.068 452.693 313.119 447.509 308.509Z" fill="#B0C7F5"/>
<path d="M406.826 326.9C405.551 356.651 380.401 379.728 350.639 378.427C320.906 377.141 297.834 352.003 299.119 322.268C300.394 292.491 325.549 269.435 355.299 270.704C385.049 272 408.122 297.156 406.826 326.9Z" fill="#B0C7F5"/>
<path d="M358.366 303L342 326.991H352.63L345.429 348L366 320.753H355.037L358.366 303Z" fill="#FFBB4D"/>
<path d="M273.159 132.979C273.613 129.643 271.567 119.804 262.462 116.967C250.289 113.181 224.755 118.131 212.845 105.181C200.901 92.1707 204.521 80.856 205.926 72.948C207.363 65.024 211.658 62.5467 211.958 57.8547C212.286 53.1347 206.691 53.0093 201.349 65.1547C198.789 70.9573 182.761 98.1267 194.109 116.195C208.967 139.885 270.331 152.672 273.159 132.979Z" fill="#FBC6B4"/>
<path d="M275.554 126.783C275.554 126.783 276.342 140.744 255.621 142.495C234.889 144.244 225.619 142.133 225.619 142.133C225.619 142.133 220.538 129.517 226.697 109.075C226.697 109.075 277.266 106.996 275.554 126.783Z" fill="#23659B"/>
<path d="M309.471 117.016L309.438 116.944C302.449 113.165 293.497 112.312 286.629 111.596C271.502 110.011 246.799 112.12 242.085 138.617C240.549 147.351 240.101 160.125 240.887 173.168C241.019 176.007 241.189 178.905 241.555 181.749C242.763 194.48 238.919 203.039 243.463 209.536C256.659 228.403 333.069 244.367 320.781 220.9C320.539 220.364 317.795 212.599 323.291 210.252C319.43 199.403 319.834 186.425 318.058 177.412C317.543 174.727 317.182 172.02 316.991 169.209C316.482 162.773 316.985 155.941 318.806 147.963C322.946 130.249 317.614 121.581 309.471 117.016Z" fill="#3A72AA"/>
<path d="M212.871 297.692C227.587 313.277 251.579 330.675 259.727 342.623C261.029 344.527 261.205 345.396 255.845 350.887C250.442 356.339 258.721 356.667 269.719 350.389C280.727 344.083 245.071 294.187 225.761 272.224C208.89 253.012 195.77 279.607 212.871 297.692Z" fill="#FBC6B4"/>
<path d="M271.539 342.427C271.539 342.427 264.102 351.909 255.845 350.887C255.845 350.887 245.749 358.412 254.198 357.629C262.675 356.831 277.294 352.144 271.539 342.427Z" fill="#33535F"/>
<path d="M298.862 135.555C296.221 148.724 289.658 168.968 319.911 185.013C319.911 185.013 267.641 248.189 236.375 215.847C236.375 215.847 240.515 158.72 248.173 135.812C250.37 129.239 255.587 111.196 269.873 111.929C269.873 111.929 248.538 144.267 258.098 152.415C267.658 160.563 276.177 153.153 280.045 146.645C286.262 136.183 300.015 113.553 300.015 113.553L308.383 116.425C308.383 116.425 301.115 124.343 298.862 135.555Z" fill="#1D3F70"/>
<path d="M298.425 92.7506C298.425 92.7506 289.921 102.02 295.761 110.228C301.771 118.656 266.131 125.344 268.887 119.213C272.421 111.295 278.141 107.74 277.074 97.0427L298.425 92.7506Z" fill="#F7B2A0"/>
<path d="M287.537 66.664C278.463 71.0733 261.921 97.7 267.253 106.379C269.621 110.147 283.758 111.125 296.057 100.976C301.115 96.8467 308.415 88.348 306.206 76.848C305.195 71.636 298.053 61.54 287.537 66.664Z" fill="#FBC6B4"/>
<path d="M279.311 67.9386C276.637 71.0946 276.818 72.0626 287.246 77.1426C297.653 82.2453 299.77 82.0866 297.839 84.34C292.174 90.9946 300.442 91.9186 293.585 99.8053C286.743 107.707 297.653 105.028 304.03 98.7986C305.282 97.536 312.183 91.624 310.411 78.608C308.361 63.4 289.205 56.3773 279.311 67.9386Z" fill="#1D1B3A"/>
<path d="M291.063 87.4893C291.063 87.4893 265.88 75.524 269.331 65.1933C271.463 58.8387 290.735 64.892 290.735 64.892L291.063 87.4893Z" fill="#CE3932"/>
<path d="M277.955 69.2999C278.874 80.0186 285.453 86.068 306.901 96.0106C306.901 96.0106 321.743 77.7879 309.023 64.5213C297.79 52.8226 277.375 62.4586 277.955 69.2999Z" fill="#EB5648"/>
<path d="M243.825 203.192C243.825 203.192 181.907 224.055 171.527 241.999C161.147 259.947 252.147 342.159 252.147 342.159C252.147 342.159 266.701 332.567 263.353 320.425C250.802 274.915 245.826 260.149 245.826 260.149L305.846 227.851L243.825 203.192Z" fill="#1D3F70"/>
<path d="M271.661 331.855C273.913 353.172 282.434 381.555 281.669 395.992C281.547 398.289 281.165 399.104 273.563 400.215C265.967 401.276 272.345 406.553 284.906 408.237C297.478 409.895 299.393 348.6 297.358 319.419C295.591 293.919 269.046 307.104 271.661 331.855Z" fill="#FBC6B4"/>
<path d="M291.183 403.009C291.183 403.009 279.509 406.039 273.563 400.215C273.563 400.215 260.981 400.077 268.171 404.568C275.395 409.085 289.861 414.215 291.183 403.009Z" fill="#33535F"/>
<path d="M319.911 185.013C319.911 185.013 326.605 210.656 326.797 245.559C327.015 287.619 299.174 385.127 299.174 385.127C299.174 385.127 300.278 388.653 276.215 380.539C269.73 378.34 266.498 237.164 266.498 237.164L282.39 201.064L319.911 185.013Z" fill="#1D3F70"/>
<path d="M290.889 384.984L289.575 384.503C314.005 317.609 308.571 204.663 308.514 203.531L309.914 203.455C309.971 204.592 315.419 317.828 290.889 384.984Z" fill="#EB5648"/>
<path d="M327.565 453.972L235.451 226.916H182.219L273.473 451.872L268.283 453.972L173.906 221.316H239.225L332.755 451.872L327.565 453.972Z" fill="#464F72"/>
<path d="M278.387 328.109H219.111V322.509H278.387V328.109Z" fill="#464F72"/>
<path d="M290.254 355.896H230.978V350.296H290.254V355.896Z" fill="#464F72"/>
<path d="M300.513 383.951H241.238V378.351H300.513V383.951Z" fill="#464F72"/>
<path d="M313.387 412.557H254.106V406.957H313.387V412.557Z" fill="#464F72"/>
<path d="M145.526 453.907L140.282 451.938L201.794 288.116L207.038 290.085L145.526 453.907Z" fill="#464F72"/>
<path d="M207.038 458.195L201.794 456.225L263.307 292.399L268.551 294.367L207.038 458.195Z" fill="#464F72"/>
<path d="M225.11 92.1267C225.11 102.72 216.519 111.312 205.926 111.312C195.327 111.312 186.747 102.72 186.747 92.1267C186.747 81.54 195.327 72.948 205.926 72.948C216.519 72.948 225.11 81.54 225.11 92.1267Z" fill="#FFCF03"/>
<path d="M209.541 51.3746H202.295V-3.8147e-05H209.541V51.3746Z" fill="#464F72"/>
<path d="M214.813 63.2307H197.029V39.5174H214.813V63.2307Z" fill="#6D76A1"/>
<path d="M205.921 50.712C181.366 50.712 161.459 70.624 161.459 95.1733H250.375C250.375 70.624 230.47 50.712 205.921 50.712Z" fill="#B0C7F5"/>
<path d="M318.545 128.932C317.898 125.776 313.589 119.591 304.511 120.035C292.343 120.587 271.059 133.328 256.167 125.575C241.233 117.792 240.801 106.467 239.487 98.908C238.209 91.3506 241.233 87.736 239.997 83.4266C238.749 79.084 233.674 80.796 232.843 93.412C232.449 99.4493 226.887 129.031 242.938 141.553C263.966 157.971 322.415 147.492 318.545 128.932Z" fill="#FBC6B4"/>
<path d="M318.582 125.837C318.582 125.837 323.821 138.113 305.781 146.416C287.777 154.7 278.775 155.849 278.775 155.849C278.775 155.849 270.123 146.159 268.997 125.841C268.997 125.841 313.677 107.539 318.582 125.837Z" fill="#23659B"/>
<path d="M146.595 165.616C142.986 165.616 140.045 168.553 140.045 172.163C140.045 175.772 142.986 178.703 146.595 178.703C150.205 178.703 153.142 175.772 153.142 172.163C153.142 168.553 150.205 165.616 146.595 165.616ZM146.595 183.98C140.071 183.98 134.773 178.676 134.773 172.163C134.773 165.649 140.071 160.349 146.595 160.349C153.114 160.349 158.413 165.649 158.413 172.163C158.413 178.676 153.114 183.98 146.595 183.98Z" fill="#64B4D7"/>
<path d="M122.178 370.956H73.6965V374.703H122.178V370.956Z" fill="#27355C"/>
<path d="M119.35 358.717H92.6245V362.459H119.35V358.717Z" fill="#27355C"/>
</svg>
