<svg width="283" height="43" viewBox="0 0 283 43" fill="none" xmlns="http://www.w3.org/2000/svg">
<path fill-rule="evenodd" clip-rule="evenodd" d="M3.97595 18.0951C3.0968 18.1774 0.781926 17.9343 0.175283 18.2625C-0.0452274 18.7037 -0.0635229 19.5601 0.177208 19.985C0.889773 20.2386 3.0034 20.0204 3.96728 20.1554C4.16468 20.6654 4.15794 22.6396 3.98847 23.1745C3.1228 23.2807 0.782889 23.0109 0.200319 23.364C-0.0644859 23.7956 -0.0567825 24.6042 0.16469 25.0587C0.947549 25.4157 3.00532 25.031 4.02024 25.2855C4.21187 26.3171 3.71981 27.8339 5.1642 27.9975C7.44248 28.2549 9.55996 27.8703 11.3019 26.4052C12.2677 25.5927 12.3091 24.9841 13.9239 25.365C14.339 26.0846 14.4853 28.6846 16.5749 32.1966C17.6187 33.9516 19.2999 36.0942 20.882 37.3871C29.35 44.3096 40.414 44.501 48.8675 37.5909C53.2334 34.0224 48.2012 34.7698 45.5474 34.7641C42.3341 34.7564 39.1189 34.7583 35.9066 34.7641C30.4516 34.7746 26.026 33.1794 23.3394 28.1793C20.8676 23.5803 21.1921 17.4472 24.2061 13.1783C27.3221 8.76293 32.7443 7.22034 37.9403 8.24714C42.3668 9.12179 46.883 12.9888 47.9306 17.4204C41.1112 17.2013 33.9152 17.3774 27.0611 17.3994C24.8974 17.4061 24.1127 16.852 23.6755 19.1975C23.3645 20.8645 23.3924 22.1975 23.714 23.8568C24.1175 25.9382 25.6341 25.3143 27.5127 25.3104C29.2527 25.3066 30.9928 25.3133 32.7318 25.3123C34.4872 25.3123 52.3649 25.4099 53.5926 25.2779C57.2681 24.8827 56.622 20.5152 56.2185 17.9161C54.0221 3.76003 37.6446 -4.57975 24.7491 2.66337C20.286 5.17056 16.8512 8.95911 15.0188 13.7448C14.7944 14.3314 14.5258 15.0816 14.363 15.6836C14.1695 16.3984 14.3361 17.2644 13.4415 17.4463C11.4049 17.8597 11.819 14.4367 5.72751 14.6682C3.18154 14.7649 4.51615 16.6281 3.97691 18.0951H3.97595Z" fill="#2196F3"/>
<path d="M97.7101 25.4826C97.3445 23.4567 96.4362 21.6733 94.976 20.1225C93.0394 18.0702 90.6869 17.0392 87.9356 17.0392C85.1844 17.0392 82.8319 18.0702 80.8953 20.1225C79.4351 21.6733 78.5256 23.4567 78.1611 25.4826H97.7101V25.4826ZM95.5952 35.1089C96.1471 35.1089 96.6144 35.3151 97.0051 35.7275C97.3959 36.1399 97.5913 36.6331 97.5913 37.2156C97.5913 37.7895 97.3959 38.2912 97.0143 38.712C94.4493 41.0779 91.4181 42.2609 87.9356 42.2609C84.0887 42.2609 80.8027 40.8271 78.0846 37.9499C75.3676 35.0824 74 31.6131 74 27.553C74 23.4929 75.3676 20.0249 78.0846 17.1561C80.8016 14.279 84.0887 12.8452 87.9356 12.8452C91.7826 12.8452 95.0685 14.279 97.7866 17.1561C100.504 20.0333 101.871 23.5013 101.871 27.5711C101.871 28.1535 101.676 28.6467 101.285 29.0591C100.894 29.4715 100.427 29.6777 99.8752 29.6777H78.16C78.5256 31.6855 79.4339 33.4605 80.8941 35.0016C82.8307 37.0455 85.1832 38.0669 87.9345 38.0669C90.4229 38.0669 92.5629 37.2336 94.3544 35.5575C94.7201 35.2621 95.1359 35.1089 95.5941 35.1089H95.5952ZM127.484 35.0547C128.036 35.0547 128.503 35.2609 128.894 35.6733C129.284 36.0857 129.48 36.5789 129.48 37.1613C129.48 37.7353 129.267 38.255 128.851 38.712C126.286 41.0779 123.255 42.2609 119.773 42.2609C115.926 42.2609 112.64 40.8271 109.922 37.9499C107.205 35.0824 105.845 31.6131 105.845 27.553C105.845 23.4929 107.203 20.0249 109.922 17.1561C112.639 14.279 115.926 12.8452 119.773 12.8452C123.254 12.8452 126.286 14.0281 128.851 16.3856C129.319 16.8245 129.547 17.3623 129.547 18.0075C129.547 18.5814 129.352 19.0734 128.961 19.4858C128.579 19.8982 128.103 20.1044 127.56 20.1044C127.076 20.1044 126.652 19.9429 126.295 19.6293C124.435 17.8989 122.261 17.0392 119.774 17.0392C117.023 17.0392 114.67 18.0605 112.733 20.1129C110.789 22.1653 109.821 24.6397 109.821 27.5518C109.821 30.4555 110.789 32.9384 112.733 34.9908C114.67 37.0431 117.021 38.0645 119.774 38.0645C122.262 38.0645 124.427 37.2035 126.27 35.4743C126.619 35.197 127.018 35.0535 127.485 35.0535L127.484 35.0547ZM147.619 38.0657C148.163 38.0657 148.629 38.2719 149.019 38.6843C149.41 39.0967 149.606 39.5899 149.606 40.1627C149.606 40.7367 149.41 41.2299 149.019 41.6411C148.629 42.0535 148.161 42.2597 147.619 42.2597C140.994 42.2597 137.683 38.7554 137.683 31.7458V17.038H135.696C135.152 17.038 134.686 16.8318 134.296 16.4193C133.905 16.0069 133.709 15.5138 133.709 14.941C133.709 14.367 133.905 13.875 134.296 13.4626C134.686 13.0502 135.154 12.844 135.696 12.844H137.683L137.691 2.35785C137.691 1.78386 137.887 1.29067 138.277 0.879469C138.659 0.467065 139.126 0.260864 139.678 0.260864C140.222 0.260864 140.688 0.467065 141.071 0.879469C141.462 1.29187 141.657 1.78507 141.657 2.35785V12.844H145.674C146.226 12.844 146.693 13.0502 147.084 13.4626C147.475 13.875 147.67 14.3682 147.67 14.941C147.67 15.515 147.475 16.0082 147.084 16.4193C146.693 16.8318 146.226 17.038 145.674 17.038H141.657V31.7554C141.657 35.9591 143.644 38.0657 147.619 38.0657V38.0657ZM153.614 14.9422C153.614 14.3682 153.809 13.8762 154.2 13.4638C154.591 13.0514 155.058 12.8452 155.601 12.8452C156.144 12.8452 156.612 13.0514 157.001 13.4638C157.392 13.8762 157.587 14.3694 157.587 14.9518V17.2731C160.373 14.3248 163.693 12.8452 167.54 12.8452C169.477 12.8452 171.26 13.1949 172.891 13.9027C173.188 14.0197 173.46 14.2078 173.706 14.449C174.088 14.8698 174.283 15.3727 174.283 15.9551C174.283 16.5291 174.088 17.0307 173.697 17.4431C173.307 17.8555 172.839 18.0617 172.287 18.0617C171.973 18.0617 171.684 17.9906 171.421 17.8471C170.241 17.3093 168.95 17.0404 167.54 17.0404C164.789 17.0404 162.436 18.0617 160.5 20.1141C158.555 22.1665 157.587 24.6409 157.587 27.553V40.1639C157.587 40.7379 157.392 41.2311 157.001 41.6423C156.611 42.0547 156.143 42.2609 155.601 42.2609C155.057 42.2609 154.591 42.0547 154.2 41.6423C153.809 41.2299 153.614 40.7367 153.614 40.1639V14.9422V14.9422ZM183.973 6.55303C183.973 7.27051 183.727 7.88912 183.243 8.40884C182.751 8.92857 182.165 9.18903 181.485 9.18903C180.805 9.18903 180.219 8.92857 179.736 8.40884C179.243 7.88912 178.996 7.27051 178.996 6.55303C178.996 5.83554 179.243 5.21814 179.736 4.69721C180.22 4.17749 180.805 3.91702 181.485 3.91702C182.165 3.91702 182.75 4.17749 183.243 4.69721C183.728 5.21694 183.973 5.83554 183.973 6.55303V6.55303ZM179.489 14.9506C179.489 14.3766 179.684 13.8846 180.075 13.4722C180.466 13.0598 180.933 12.8536 181.476 12.8536C182.02 12.8536 182.487 13.0598 182.877 13.4722C183.267 13.8846 183.463 14.3778 183.463 14.9506V40.1627C183.463 40.7367 183.267 41.2299 182.877 41.6411C182.486 42.0535 182.018 42.2597 181.476 42.2597C180.932 42.2597 180.466 42.0535 180.075 41.6411C179.684 41.2287 179.489 40.7355 179.489 40.1627V14.9506V14.9506ZM211.08 35.0547C211.632 35.0547 212.099 35.2609 212.49 35.6733C212.881 36.0857 213.076 36.5789 213.076 37.1613C213.076 37.7353 212.864 38.255 212.448 38.712C209.883 41.0779 206.852 42.2609 203.369 42.2609C199.522 42.2609 196.236 40.8271 193.518 37.9499C190.801 35.0824 189.442 31.6131 189.442 27.553C189.442 23.4929 190.8 20.0249 193.518 17.1561C196.235 14.279 199.522 12.8452 203.369 12.8452C206.851 12.8452 209.883 14.0281 212.448 16.3856C212.915 16.8245 213.144 17.3623 213.144 18.0075C213.144 18.5814 212.948 19.0734 212.558 19.4858C212.176 19.8982 211.699 20.1044 211.157 20.1044C210.672 20.1044 210.248 19.9429 209.892 19.6293C208.032 17.8989 205.858 17.0392 203.37 17.0392C200.619 17.0392 198.267 18.0605 196.33 20.1129C194.385 22.1653 193.418 24.6397 193.418 27.5518C193.418 30.4555 194.385 32.9384 196.33 34.9908C198.267 37.0431 200.618 38.0645 203.37 38.0645C205.859 38.0645 208.024 37.2035 209.867 35.4743C210.215 35.197 210.614 35.0535 211.081 35.0535L211.08 35.0547ZM229.279 21.2343C228.735 21.2343 228.268 21.0281 227.878 20.6157C227.487 20.2033 227.292 19.7101 227.292 19.1374C227.292 18.5634 227.487 18.0702 227.878 17.659C228.269 17.2466 228.736 17.0404 229.279 17.0404C230.918 17.0404 232.319 16.4218 233.491 15.1942C234.654 13.957 235.24 12.4786 235.24 10.7482C235.24 9.0178 234.654 7.53942 233.482 6.30221C232.31 5.07465 230.9 4.45604 229.252 4.45604C227.605 4.45604 226.195 5.07465 225.024 6.30221C223.852 7.53942 223.265 9.0178 223.265 10.7482C223.265 11.3222 223.07 11.8142 222.679 12.2266C222.289 12.639 221.821 12.8452 221.279 12.8452C220.735 12.8452 220.269 12.639 219.878 12.2266C219.487 11.8142 219.292 11.321 219.292 10.7482C219.292 7.8445 220.259 5.37008 222.204 3.32736C224.149 1.28343 226.501 0.262069 229.252 0.262069C232.013 0.262069 234.356 1.28343 236.301 3.32736C238.245 5.37129 239.213 7.8445 239.213 10.7482C239.213 13.8219 237.999 16.5387 235.562 18.9046C236.326 19.4063 237.048 20.0164 237.727 20.7146C240.045 23.1878 241.2 26.1639 241.2 29.65C241.2 33.1361 240.037 36.1122 237.702 38.5685C235.374 41.0333 232.556 42.2609 229.251 42.2609C225.948 42.2609 223.128 41.0333 220.801 38.577C218.466 36.1206 217.303 33.1458 217.303 29.6585C217.303 29.0845 217.498 28.5925 217.889 28.1801C218.279 27.7677 218.747 27.5615 219.289 27.5615C219.833 27.5615 220.301 27.7677 220.69 28.1801C221.081 28.5925 221.276 29.0857 221.276 29.6585C221.276 31.9894 222.049 33.9694 223.604 35.6094C225.158 37.2493 227.043 38.0657 229.251 38.0657C231.46 38.0657 233.345 37.2505 234.899 35.6094C236.453 33.9694 237.226 31.9797 237.226 29.6488C237.226 27.3191 236.454 25.3282 234.908 23.6883C233.354 22.0483 231.477 21.2319 229.278 21.2319L229.279 21.2343ZM255.104 40.1639C255.104 40.7379 254.908 41.2311 254.517 41.6423C254.127 42.0547 253.659 42.2609 253.117 42.2609C252.573 42.2609 252.106 42.0547 251.716 41.6423C251.325 41.2299 251.13 40.7367 251.13 40.1639V5.2712L247.928 6.40109C247.674 6.50841 247.419 6.56267 247.156 6.56267C246.612 6.56267 246.146 6.35647 245.755 5.94407C245.365 5.53167 245.169 5.03847 245.169 4.45604C245.169 3.87361 245.365 3.37198 245.763 2.94993C245.967 2.74372 246.188 2.58214 246.434 2.47482L252.396 0.368185C252.616 0.29704 252.854 0.260864 253.118 0.260864C253.662 0.260864 254.128 0.467065 254.519 0.879469C254.909 1.29187 255.105 1.78507 255.105 2.35785V40.1627L255.104 40.1639ZM281.013 38.0669C281.557 38.0669 282.024 38.2731 282.414 38.6855C282.805 39.0979 283 39.5911 283 40.1639C283 40.7379 282.805 41.2311 282.414 41.6423C282.023 42.0547 281.556 42.2609 281.013 42.2609H261.091C260.547 42.2609 260.081 42.0547 259.69 41.6423C259.299 41.2299 259.104 40.7367 259.104 40.1639C259.104 39.5815 259.291 39.0883 259.673 38.6674L276.683 18.8154C278.246 17.1754 279.026 15.1858 279.026 12.8548C279.026 10.5336 278.254 8.5439 276.699 6.91237C275.145 5.27241 273.26 4.45604 271.051 4.45604C268.844 4.45604 266.958 5.2712 265.404 6.91237C263.85 8.55234 263.076 10.5336 263.076 12.8548C263.076 13.4373 262.881 13.9305 262.49 14.3429C262.099 14.7553 261.632 14.9615 261.089 14.9615C260.546 14.9615 260.079 14.7553 259.689 14.3429C259.298 13.9305 259.103 13.4373 259.103 12.8548C259.103 9.37714 260.266 6.40109 262.601 3.94596C264.928 1.48963 267.747 0.262069 271.051 0.262069C274.354 0.262069 277.174 1.48963 279.502 3.9544C281.837 6.41074 283 9.37714 283 12.8633C283 16.3494 281.828 19.3255 279.492 21.7902L265.599 38.0669H281.012H281.013Z" fill="#373435"/>
<path d="M62 2.39359C62 1.80982 62.1966 1.30822 62.5898 0.890011C62.983 0.47058 63.4533 0.260864 63.9994 0.260864C64.5467 0.260864 65.017 0.47058 65.409 0.890011C65.8022 1.30944 65.9989 1.81104 65.9989 2.39359V27.3951H66.0012V30.5776C66.0012 34.8529 68.0006 36.9954 72.0006 36.9954C72.5479 36.9954 73.017 37.2051 73.4102 37.6246C73.8034 38.044 74 38.5456 74 39.1281C74 39.7119 73.8034 40.2135 73.4102 40.6317C73.017 41.0511 72.5467 41.2609 72.0006 41.2609C65.4918 41.2609 62.161 37.8613 62.008 31.0645H62V2.39481V2.39359Z" fill="#373435"/>
</svg>
