<svg width="300" height="79" viewBox="0 0 300 79" fill="none" xmlns="http://www.w3.org/2000/svg">
<path fill-rule="evenodd" clip-rule="evenodd" d="M18.4487 37.5066C17.6113 37.5816 15.4064 37.3599 14.8286 37.6593C14.6186 38.0618 14.6012 38.843 14.8305 39.2306C15.5092 39.4619 17.5223 39.2629 18.4404 39.386C18.6284 39.8513 18.622 41.6521 18.4606 42.1401C17.6361 42.237 15.4074 41.9908 14.8525 42.313C14.6003 42.7067 14.6076 43.4443 14.8185 43.8589C15.5642 44.1845 17.5242 43.8336 18.4908 44.0658C18.6734 45.0068 18.2047 46.3905 19.5804 46.5397C21.7504 46.7745 23.7672 46.4236 25.4264 45.0872C26.3463 44.346 26.3857 43.7908 27.9238 44.1383C28.3191 44.7947 28.4585 47.1665 30.4487 50.3702C31.4429 51.9712 33.0443 53.9257 34.5512 55.105C42.6167 61.4198 53.1548 61.5944 61.2065 55.2909C65.3649 52.0357 60.5719 52.7175 58.0442 52.7123C54.9836 52.7053 51.9212 52.707 48.8616 52.7123C43.6659 52.7219 39.4506 51.2667 36.8918 46.7056C34.5374 42.5102 34.8465 36.9156 37.7172 33.0214C40.6851 28.9937 45.8496 27.5865 50.7986 28.5232C55.0148 29.321 59.3163 32.8486 60.3141 36.8911C53.8188 36.6912 46.9649 36.8519 40.4366 36.8719C38.3757 36.878 37.6282 36.3726 37.2119 38.5122C36.9156 40.0328 36.9422 41.2489 37.2485 42.7625C37.6328 44.6612 39.0774 44.092 40.8667 44.0885C42.524 44.085 44.1813 44.0911 45.8377 44.0903C47.5097 44.0903 64.5376 44.1793 65.707 44.0588C69.2078 43.6983 68.5924 39.7142 68.2081 37.3433C66.1161 24.4299 50.5171 16.8223 38.2345 23.4296C33.9835 25.7167 30.712 29.1726 28.9666 33.5382C28.7529 34.0733 28.497 34.7577 28.342 35.3068C28.1577 35.9588 28.3163 36.7489 27.4643 36.9147C25.5245 37.2918 25.9189 34.1693 20.117 34.3806C17.692 34.4687 18.9632 36.1684 18.4496 37.5066H18.4487Z" fill="white"/>
<path d="M107.728 44.2455C107.379 42.3975 106.514 40.7706 105.123 39.356C103.279 37.4838 101.038 36.5433 98.4177 36.5433C95.7972 36.5433 93.5565 37.4838 91.7119 39.356C90.3212 40.7706 89.4549 42.3975 89.1078 44.2455H107.728V44.2455ZM105.713 53.0268C106.239 53.0268 106.684 53.2149 107.056 53.5911C107.428 53.9673 107.614 54.4172 107.614 54.9485C107.614 55.4721 107.428 55.9297 107.065 56.3136C104.622 58.4718 101.735 59.5509 98.4177 59.5509C94.7536 59.5509 91.6238 58.243 89.0349 55.6184C86.447 53.0026 85.1444 49.8379 85.1444 46.1342C85.1444 42.4305 86.447 39.2669 89.0349 36.65C91.6227 34.0254 94.7536 32.7175 98.4177 32.7175C102.082 32.7175 105.212 34.0254 107.8 36.65C110.388 39.2746 111.691 42.4382 111.691 46.1507C111.691 46.682 111.505 47.1319 111.133 47.5081C110.76 47.8843 110.315 48.0724 109.79 48.0724H89.1067C89.4549 49.9039 90.3201 51.5231 91.7108 52.9289C93.5554 54.7934 95.7961 55.7251 98.4166 55.7251C100.787 55.7251 102.825 54.965 104.531 53.436C104.88 53.1665 105.276 53.0268 105.712 53.0268H105.713ZM136.086 52.9773C136.612 52.9773 137.057 53.1654 137.429 53.5416C137.801 53.9178 137.987 54.3677 137.987 54.899C137.987 55.4226 137.785 55.8967 137.389 56.3136C134.945 58.4718 132.058 59.5509 128.741 59.5509C125.077 59.5509 121.948 58.243 119.359 55.6184C116.771 53.0026 115.476 49.8379 115.476 46.1342C115.476 42.4305 116.77 39.2669 119.359 36.65C121.946 34.0254 125.077 32.7175 128.741 32.7175C132.057 32.7175 134.945 33.7966 137.389 35.9471C137.834 36.3475 138.051 36.8381 138.051 37.4266C138.051 37.9502 137.865 38.399 137.493 38.7752C137.13 39.1514 136.676 39.3395 136.159 39.3395C135.697 39.3395 135.294 39.1921 134.954 38.9061C133.183 37.3276 131.112 36.5433 128.743 36.5433C126.122 36.5433 123.881 37.475 122.037 39.3472C120.185 41.2194 119.263 43.4766 119.263 46.1331C119.263 48.7819 120.185 51.0468 122.037 52.919C123.881 54.7912 126.121 55.7229 128.743 55.7229C131.113 55.7229 133.175 54.9375 134.93 53.3601C135.262 53.1071 135.642 52.9762 136.087 52.9762L136.086 52.9773ZM155.264 55.724C155.782 55.724 156.226 55.9121 156.598 56.2883C156.97 56.6645 157.156 57.1144 157.156 57.6369C157.156 58.1605 156.97 58.6104 156.598 58.9855C156.226 59.3617 155.781 59.5498 155.264 59.5498C148.954 59.5498 145.801 56.3532 145.801 49.9589V36.5422H143.908C143.39 36.5422 142.946 36.3541 142.574 35.9779C142.202 35.6017 142.016 35.1518 142.016 34.6293C142.016 34.1057 142.202 33.6569 142.574 33.2807C142.946 32.9045 143.391 32.7164 143.908 32.7164H145.801L145.808 23.1508C145.808 22.6272 145.994 22.1773 146.367 21.8022C146.73 21.426 147.175 21.2379 147.701 21.2379C148.219 21.2379 148.663 21.426 149.027 21.8022C149.399 22.1784 149.586 22.6283 149.586 23.1508V32.7164H153.412C153.937 32.7164 154.383 32.9045 154.755 33.2807C155.127 33.6569 155.313 34.1068 155.313 34.6293C155.313 35.1529 155.127 35.6028 154.755 35.9779C154.383 36.3541 153.937 36.5422 153.412 36.5422H149.586V49.9677C149.586 53.8023 151.478 55.724 155.264 55.724V55.724ZM160.974 34.6304C160.974 34.1068 161.16 33.658 161.532 33.2818C161.904 32.9056 162.35 32.7175 162.866 32.7175C163.384 32.7175 163.83 32.9056 164.201 33.2818C164.573 33.658 164.759 34.1079 164.759 34.6392V36.7567C167.412 34.0672 170.574 32.7175 174.239 32.7175C176.083 32.7175 177.782 33.0365 179.335 33.6822C179.618 33.7889 179.877 33.9605 180.112 34.1805C180.475 34.5644 180.661 35.0231 180.661 35.5544C180.661 36.078 180.475 36.5356 180.103 36.9118C179.731 37.288 179.286 37.4761 178.76 37.4761C178.461 37.4761 178.186 37.4112 177.935 37.2803C176.811 36.7897 175.581 36.5444 174.239 36.5444C171.618 36.5444 169.377 37.4761 167.533 39.3483C165.681 41.2205 164.759 43.4777 164.759 46.1342V57.638C164.759 58.1616 164.573 58.6115 164.201 58.9866C163.828 59.3628 163.383 59.5509 162.866 59.5509C162.348 59.5509 161.904 59.3628 161.532 58.9866C161.16 58.6104 160.974 58.1605 160.974 57.638V34.6304V34.6304ZM189.891 26.9777C189.891 27.6322 189.656 28.1965 189.195 28.6706C188.726 29.1447 188.168 29.3823 187.52 29.3823C186.873 29.3823 186.315 29.1447 185.854 28.6706C185.385 28.1965 185.15 27.6322 185.15 26.9777C185.15 26.3232 185.385 25.76 185.854 25.2848C186.316 24.8107 186.873 24.5731 187.52 24.5731C188.168 24.5731 188.725 24.8107 189.195 25.2848C189.657 25.7589 189.891 26.3232 189.891 26.9777V26.9777ZM185.619 34.6381C185.619 34.1145 185.805 33.6657 186.178 33.2895C186.55 32.9133 186.995 32.7252 187.512 32.7252C188.03 32.7252 188.475 32.9133 188.846 33.2895C189.218 33.6657 189.404 34.1156 189.404 34.6381V57.6369C189.404 58.1605 189.218 58.6104 188.846 58.9855C188.474 59.3617 188.029 59.5498 187.512 59.5498C186.994 59.5498 186.55 59.3617 186.178 58.9855C185.805 58.6093 185.619 58.1594 185.619 57.6369V34.6381V34.6381ZM215.709 52.9773C216.235 52.9773 216.68 53.1654 217.052 53.5416C217.424 53.9178 217.61 54.3677 217.61 54.899C217.61 55.4226 217.408 55.8967 217.012 56.3136C214.569 58.4718 211.682 59.5509 208.365 59.5509C204.701 59.5509 201.571 58.243 198.982 55.6184C196.394 53.0026 195.099 49.8379 195.099 46.1342C195.099 42.4305 196.393 39.2669 198.982 36.65C201.57 34.0254 204.701 32.7175 208.365 32.7175C211.68 32.7175 214.569 33.7966 217.012 35.9471C217.457 36.3475 217.675 36.8381 217.675 37.4266C217.675 37.9502 217.488 38.399 217.116 38.7752C216.753 39.1514 216.299 39.3395 215.782 39.3395C215.321 39.3395 214.917 39.1921 214.577 38.9061C212.806 37.3276 210.735 36.5433 208.366 36.5433C205.745 36.5433 203.505 37.475 201.66 39.3472C199.808 41.2194 198.886 43.4766 198.886 46.1331C198.886 48.7819 199.808 51.0468 201.66 52.919C203.505 54.7912 205.744 55.7229 208.366 55.7229C210.736 55.7229 212.798 54.9375 214.553 53.3601C214.885 53.1071 215.265 52.9762 215.71 52.9762L215.709 52.9773ZM233.043 40.3702C232.525 40.3702 232.08 40.1821 231.708 39.8059C231.336 39.4297 231.15 38.9798 231.15 38.4573C231.15 37.9337 231.336 37.4838 231.708 37.1087C232.081 36.7325 232.526 36.5444 233.043 36.5444C234.604 36.5444 235.938 35.9801 237.055 34.8603C238.163 33.7317 238.721 32.3831 238.721 30.8046C238.721 29.2261 238.163 27.8775 237.046 26.7489C235.93 25.6291 234.587 25.0648 233.018 25.0648C231.448 25.0648 230.105 25.6291 228.99 26.7489C227.873 27.8775 227.315 29.2261 227.315 30.8046C227.315 31.3282 227.129 31.777 226.757 32.1532C226.385 32.5294 225.94 32.7175 225.423 32.7175C224.905 32.7175 224.461 32.5294 224.089 32.1532C223.716 31.777 223.53 31.3271 223.53 30.8046C223.53 28.1558 224.452 25.8986 226.304 24.0352C228.156 22.1707 230.397 21.239 233.018 21.239C235.647 21.239 237.879 22.1707 239.731 24.0352C241.583 25.8997 242.505 28.1558 242.505 30.8046C242.505 33.6085 241.348 36.0868 239.027 38.245C239.755 38.7026 240.443 39.2592 241.089 39.8961C243.297 42.1522 244.397 44.867 244.397 48.0471C244.397 51.2272 243.289 53.942 241.065 56.1827C238.848 58.4311 236.164 59.5509 233.017 59.5509C229.87 59.5509 227.185 58.4311 224.968 56.1904C222.744 53.9497 221.636 51.236 221.636 48.0548C221.636 47.5312 221.822 47.0824 222.194 46.7062C222.566 46.33 223.011 46.1419 223.528 46.1419C224.046 46.1419 224.491 46.33 224.862 46.7062C225.235 47.0824 225.421 47.5323 225.421 48.0548C225.421 50.1811 226.156 51.9873 227.637 53.4833C229.117 54.9793 230.913 55.724 233.017 55.724C235.12 55.724 236.916 54.9804 238.396 53.4833C239.876 51.9873 240.612 50.1723 240.612 48.046C240.612 45.9208 239.877 44.1047 238.404 42.6087C236.924 41.1127 235.136 40.368 233.042 40.368L233.043 40.3702ZM257.64 57.638C257.64 58.1616 257.454 58.6115 257.082 58.9866C256.71 59.3628 256.265 59.5509 255.748 59.5509C255.23 59.5509 254.785 59.3628 254.413 58.9866C254.041 58.6104 253.855 58.1605 253.855 57.638V25.8084L250.806 26.8391C250.563 26.937 250.321 26.9865 250.07 26.9865C249.552 26.9865 249.108 26.7984 248.736 26.4222C248.364 26.046 248.178 25.5961 248.178 25.0648C248.178 24.5335 248.364 24.0759 248.744 23.6909C248.937 23.5028 249.149 23.3554 249.383 23.2575L255.061 21.3358C255.271 21.2709 255.497 21.2379 255.749 21.2379C256.267 21.2379 256.711 21.426 257.083 21.8022C257.455 22.1784 257.641 22.6283 257.641 23.1508V57.6369L257.64 57.638ZM282.318 55.7251C282.836 55.7251 283.281 55.9132 283.652 56.2894C284.024 56.6656 284.211 57.1155 284.211 57.638C284.211 58.1616 284.024 58.6115 283.652 58.9866C283.28 59.3628 282.835 59.5509 282.318 59.5509H263.342C262.824 59.5509 262.38 59.3628 262.008 58.9866C261.636 58.6104 261.45 58.1605 261.45 57.638C261.45 57.1067 261.628 56.6568 261.992 56.2729L278.194 38.1636C279.682 36.6676 280.426 34.8526 280.426 32.7263C280.426 30.6088 279.69 28.7938 278.209 27.3055C276.729 25.8095 274.933 25.0648 272.83 25.0648C270.727 25.0648 268.931 25.8084 267.451 27.3055C265.971 28.8015 265.234 30.6088 265.234 32.7263C265.234 33.2576 265.048 33.7075 264.676 34.0837C264.303 34.4599 263.858 34.648 263.341 34.648C262.823 34.648 262.379 34.4599 262.007 34.0837C261.635 33.7075 261.449 33.2576 261.449 32.7263C261.449 29.5539 262.557 26.8391 264.781 24.5995C266.998 22.3588 269.683 21.239 272.83 21.239C275.976 21.239 278.662 22.3588 280.878 24.6072C283.103 26.8479 284.211 29.5539 284.211 32.734C284.211 35.9141 283.094 38.6289 280.87 40.8773L267.637 55.7251H282.317H282.318Z" fill="white"/>
<path d="M73.7148 24.0957C73.7148 23.5632 73.902 23.1056 74.2766 22.7241C74.6511 22.3415 75.099 22.1502 75.6192 22.1502C76.1404 22.1502 76.5883 22.3415 76.9618 22.7241C77.3363 23.1067 77.5236 23.5643 77.5236 24.0957V46.9024H77.5258V49.8056C77.5258 53.7055 79.4301 55.6599 83.24 55.6599C83.7613 55.6599 84.2081 55.8512 84.5826 56.2339C84.9572 56.6165 85.1444 57.074 85.1444 57.6054C85.1444 58.138 84.9572 58.5955 84.5826 58.977C84.2081 59.3596 83.7602 59.5509 83.24 59.5509C77.0406 59.5509 73.8681 56.4498 73.7224 50.2497H73.7148V24.0968V24.0957Z" fill="white"/>
</svg>
