<svg width="57" height="43" viewBox="0 0 57 43" fill="none" xmlns="http://www.w3.org/2000/svg">
<path fill-rule="evenodd" clip-rule="evenodd" d="M3.97595 18.0951C3.0968 18.1774 0.781926 17.9343 0.175283 18.2625C-0.0452274 18.7037 -0.0635229 19.5601 0.177208 19.985C0.889773 20.2386 3.0034 20.0204 3.96728 20.1554C4.16468 20.6654 4.15794 22.6396 3.98847 23.1745C3.1228 23.2807 0.782889 23.0109 0.200319 23.364C-0.0644859 23.7956 -0.0567825 24.6042 0.16469 25.0587C0.947549 25.4157 3.00532 25.031 4.02025 25.2855C4.21187 26.3171 3.71981 27.8339 5.1642 27.9975C7.44248 28.2549 9.55996 27.8703 11.3019 26.4052C12.2677 25.5927 12.3091 24.9841 13.9239 25.365C14.339 26.0846 14.4853 28.6846 16.5749 32.1966C17.6187 33.9516 19.2999 36.0942 20.882 37.3871C29.35 44.3096 40.414 44.501 48.8675 37.5909C53.2334 34.0224 48.2012 34.7698 45.5474 34.7641C42.3341 34.7564 39.1189 34.7583 35.9066 34.7641C30.4516 34.7746 26.026 33.1794 23.3394 28.1793C20.8676 23.5803 21.1921 17.4472 24.2061 13.1783C27.3221 8.76293 32.7443 7.22034 37.9403 8.24714C42.3668 9.12179 46.883 12.9888 47.9306 17.4204C41.1112 17.2013 33.9152 17.3774 27.0611 17.3994C24.8974 17.4061 24.1127 16.852 23.6755 19.1975C23.3645 20.8645 23.3924 22.1975 23.714 23.8568C24.1175 25.9382 25.6341 25.3143 27.5127 25.3104C29.2527 25.3066 30.9928 25.3133 32.7318 25.3123C34.4872 25.3123 52.3649 25.4099 53.5926 25.2779C57.2681 24.8827 56.622 20.5152 56.2185 17.9161C54.0221 3.76003 37.6446 -4.57975 24.7491 2.66337C20.286 5.17056 16.8512 8.95911 15.0188 13.7448C14.7944 14.3314 14.5258 15.0816 14.363 15.6836C14.1695 16.3984 14.3361 17.2644 13.4415 17.4463C11.4049 17.8597 11.819 14.4367 5.72751 14.6682C3.18154 14.7649 4.51615 16.6281 3.97691 18.0951H3.97595Z" fill="#2196F3"/>
</svg>
